<svg width="24" height="24" viewBox="0 0 24 24" fill="none" xmlns="http://www.w3.org/2000/svg">
<mask id="mask0" mask-type="alpha" maskUnits="userSpaceOnUse" x="0" y="0" width="24" height="24">
<path d="M24 0H0V24H24V0Z" fill="#C4C4C4"/>
</mask>
<g mask="url(#mask0)">
<path d="M22.041 8.66657H21.0827V5.80946C21.0827 5.28348 20.6537 4.85711 20.1244 4.85711H11.8968L9.30259 2.27893C9.12286 2.10031 8.87913 2 8.62498 2H0.958727C0.429484 2 0.000456932 2.42638 0.000456932 2.95235V21.0209C-0.000800817 21.063 0.000501852 21.1048 0.00481413 21.146C0.00683551 21.165 0.00944085 21.1843 0.0125852 21.2031C0.0667583 21.5723 0.311256 21.8236 0.609387 21.9349C0.614014 21.9367 0.61873 21.9384 0.623402 21.9401C0.635081 21.9443 0.646625 21.9486 0.658439 21.9523C0.704931 21.9675 0.753175 21.979 0.802856 21.987C0.802856 21.987 0.806719 21.9876 0.808695 21.9879C0.828954 21.991 0.849482 21.9935 0.870235 21.9954C0.878276 21.9962 0.886271 21.997 0.894312 21.9976C0.900107 21.998 0.905991 21.9981 0.911786 21.9984C0.938109 21.9998 0.964431 22.0003 0.990754 21.9998H18.2079C18.6203 21.9998 18.9865 21.7375 19.117 21.3486L22.9501 9.92017C23.1569 9.30339 22.695 8.66657 22.041 8.66657ZM8.22806 3.90471L10.8223 6.48289C11.002 6.6615 11.2457 6.76181 11.4999 6.76181H19.1662V8.66657H11.979H4.7919C4.3794 8.66657 4.01321 8.92888 3.88277 9.31776L1.917 15.1786V3.90471H8.22806Z" fill="#878787"/>
</g>
</svg>
