<svg width="24" height="24" viewBox="0 0 24 24" fill="none" xmlns="http://www.w3.org/2000/svg">
<path d="M19.6641 9.88562L10.6907 1.28322C10.2969 0.905579 9.70294 0.90562 9.30923 1.28318L0.33586 9.88566C0.0203532 10.1881 -0.0838652 10.6542 0.0702749 11.0729C0.224454 11.4917 0.599843 11.7622 1.02668 11.7622H2.45988V20.3812C2.45988 20.7229 2.72323 21 3.04804 21H7.96654C8.29134 21 8.5547 20.7229 8.5547 20.3812V15.148H11.4454V20.3812C11.4454 20.7229 11.7087 21 12.0336 21H16.9518C17.2766 21 17.54 20.723 17.54 20.3812V11.7622H18.9735C19.4002 11.7622 19.7757 11.4916 19.9299 11.0729C20.0838 10.6541 19.9796 10.1881 19.6641 9.88562Z" fill="#878787"/>
<path d="M19.739 3H14.999L20.4448 7.95168V3.70575C20.4448 3.31598 20.1288 3 19.739 3Z" fill="#878787"/>
</svg>
