<svg width="24" height="24" viewBox="0 0 24 24" fill="none" xmlns="http://www.w3.org/2000/svg">
<mask id="mask0" mask-type="alpha" maskUnits="userSpaceOnUse" x="0" y="0" width="24" height="24">
<path d="M24 0H0V24H24V0Z" fill="#C4C4C4"/>
</mask>
<g mask="url(#mask0)">
<path d="M20.0969 6.97856C19.2867 4.36015 17.1566 2.22946 14.5382 1.41911C11.7669 0.560653 8.81828 1.03777 6.56765 2.69611C4.3336 4.34299 3 6.98116 3 9.75302C3 11.6652 3.60492 13.4819 4.74894 15.0064L11.7624 24L18.7758 15.0057C20.4879 12.7229 20.9697 9.79713 20.0969 6.97856ZM11.7624 14.4712C9.16104 14.4712 7.04418 12.3543 7.04418 9.75298C7.04418 7.15164 9.16104 5.03478 11.7624 5.03478C14.3637 5.03478 16.4806 7.15164 16.4806 9.75298C16.4806 12.3543 14.3637 14.4712 11.7624 14.4712Z" fill="#878787"/>
<path d="M11.8946 7.39062C10.5161 7.39062 9.39453 8.50554 9.39453 9.88397C9.39453 11.2624 10.5161 12.3839 11.8946 12.3839C13.273 12.3839 14.3946 11.2624 14.3946 9.88397C14.3946 8.50554 13.273 7.39062 11.8946 7.39062Z" fill="#878787"/>
</g>
</svg>
