<svg width="174" height="41" viewBox="0 0 174 41" fill="none" xmlns="http://www.w3.org/2000/svg">
<path d="M50.3632 20.696C50.0171 21.9013 49.3745 22.8053 48.4353 23.4079C47.4961 23.9985 46.353 24.2938 45.006 24.2938C43.7702 24.2938 42.7012 24.0527 41.7991 23.5706C40.897 23.0765 40.2049 22.3714 39.7229 21.4554C39.241 20.5273 39 19.4245 39 18.1469C39 16.8814 39.241 15.7846 39.7229 14.8565C40.2049 13.9284 40.897 13.2234 41.7991 12.7412C42.7012 12.2471 43.764 12 44.9874 12C46.3221 12 47.4529 12.2772 48.3797 12.8316C49.3066 13.374 49.9183 14.1936 50.2149 15.2904L47.4158 16.3932C47.2428 15.6701 46.9771 15.1638 46.6187 14.8746C46.2603 14.5853 45.7536 14.4407 45.0987 14.4407C44.1965 14.4407 43.4983 14.7601 43.004 15.3989C42.5097 16.0256 42.2625 16.9416 42.2625 18.1469C42.2625 19.3522 42.4973 20.2742 42.9669 20.913C43.4489 21.5397 44.1409 21.8531 45.0431 21.8531C45.7227 21.8531 46.2603 21.6964 46.6558 21.383C47.0512 21.0697 47.3231 20.5755 47.4714 19.9006L50.3632 20.696Z" fill="white"/>
<path d="M56.3624 14.8945C57.9072 14.8945 59.1059 15.3103 59.9586 16.1419C60.8236 16.9615 61.2562 18.1125 61.2562 19.595C61.2562 21.0775 60.8236 22.2346 59.9586 23.0662C59.1059 23.8858 57.9072 24.2956 56.3624 24.2956C54.8177 24.2956 53.6128 23.8858 52.7477 23.0662C51.895 22.2346 51.4688 21.0775 51.4688 19.595C51.4688 18.1125 51.895 16.9615 52.7477 16.1419C53.6128 15.3103 54.8177 14.8945 56.3624 14.8945ZM56.3624 17.082C55.7692 17.082 55.3305 17.2809 55.0463 17.6786C54.7621 18.0764 54.6199 18.7152 54.6199 19.595C54.6199 20.4749 54.7621 21.1137 55.0463 21.5114C55.3305 21.9091 55.7692 22.108 56.3624 22.108C56.9556 22.108 57.3944 21.9091 57.6786 21.5114C57.9629 21.1137 58.1049 20.4749 58.1049 19.595C58.1049 18.7152 57.9629 18.0764 57.6786 17.6786C57.3944 17.2809 56.9556 17.082 56.3624 17.082Z" fill="white"/>
<path d="M75.134 14.8945C76.0732 14.8945 76.8332 15.1717 77.414 15.7261C78.0072 16.2805 78.3038 17.07 78.3038 18.0945V24.1148H75.1525V18.7995C75.1525 17.763 74.7323 17.2447 73.892 17.2447C73.3977 17.2447 73.0022 17.4195 72.7056 17.769C72.409 18.1186 72.2607 18.6248 72.2607 19.2877V24.1148H69.1094V18.7995C69.1094 17.763 68.6893 17.2447 67.8489 17.2447C67.3793 17.2447 66.9901 17.4195 66.6811 17.769C66.3722 18.1186 66.2177 18.6429 66.2177 19.3419V24.1148H63.0664V15.0752H65.884L65.9767 16.8108C66.2733 16.1841 66.6873 15.708 67.2187 15.3826C67.7501 15.0572 68.3741 14.8945 69.0909 14.8945C69.7953 14.8945 70.4009 15.0511 70.9075 15.3645C71.4266 15.6779 71.7973 16.1299 72.0197 16.7204C72.3163 16.1299 72.7365 15.6779 73.2803 15.3645C73.8364 15.0511 74.4543 14.8945 75.134 14.8945Z" fill="white"/>
<path d="M86.466 14.8945C87.6771 14.8945 88.6163 15.3042 89.2836 16.1238C89.9509 16.9434 90.2846 18.0884 90.2846 19.5589C90.2846 21.0534 89.9448 22.2165 89.2651 23.0481C88.5854 23.8798 87.6523 24.2956 86.466 24.2956C85.811 24.2956 85.2425 24.1449 84.7606 23.8436C84.291 23.5423 83.9264 23.1265 83.6669 22.5961V27.9114H80.5156V15.0752H83.2776L83.3703 16.9916C83.6298 16.3528 84.0253 15.8466 84.5567 15.473C85.1004 15.0873 85.7369 14.8945 86.466 14.8945ZM85.3723 22.0357C85.9284 22.0357 86.3548 21.8368 86.6514 21.4391C86.9603 21.0413 87.1148 20.4267 87.1148 19.595C87.1148 18.7634 86.9603 18.1487 86.6514 17.751C86.3548 17.3532 85.9284 17.1543 85.3723 17.1543C84.8409 17.1543 84.4207 17.3532 84.1118 17.751C83.8152 18.1487 83.6669 18.7333 83.6669 19.5046V19.6854C83.6669 20.4327 83.8152 21.0112 84.1118 21.421C84.4084 21.8308 84.8285 22.0357 85.3723 22.0357Z" fill="white"/>
<path d="M101.022 22.3611C101.257 22.3611 101.448 22.337 101.596 22.2888L101.355 24.0063C100.997 24.1992 100.577 24.2956 100.095 24.2956C98.7608 24.2956 97.9636 23.8316 97.7041 22.9035C97.1479 23.8316 96.0481 24.2956 94.4045 24.2956C93.4776 24.2956 92.7671 24.1027 92.2728 23.7171C91.7785 23.3314 91.5312 22.7709 91.5312 22.0357C91.5312 21.2643 91.8093 20.6436 92.3654 20.1736C92.9339 19.6914 93.8607 19.3238 95.146 19.0707L97.2406 18.673V18.3476C97.2406 17.9378 97.1233 17.6123 96.8885 17.3713C96.6537 17.1302 96.3323 17.0097 95.9245 17.0097C95.4549 17.0097 95.0718 17.1182 94.7752 17.3351C94.4786 17.5521 94.2871 17.9076 94.2006 18.4018L91.6425 17.6786C91.8031 16.7988 92.248 16.1178 92.9771 15.6357C93.7063 15.1415 94.6887 14.8945 95.9245 14.8945C97.3704 14.8945 98.4704 15.1837 99.2242 15.7623C99.978 16.3408 100.354 17.2086 100.354 18.3656V21.656C100.354 22.1261 100.577 22.3611 101.022 22.3611ZM95.5538 22.3069C95.9863 22.3069 96.3756 22.1924 96.7216 21.9634C97.0676 21.7223 97.2406 21.409 97.2406 21.0233V20.2459L95.7392 20.5894C95.3438 20.6858 95.0595 20.8063 94.8865 20.951C94.7259 21.0835 94.6455 21.2764 94.6455 21.5295C94.6455 21.7826 94.7259 21.9754 94.8865 22.108C95.0472 22.2406 95.2695 22.3069 95.5538 22.3069Z" fill="white"/>
<path d="M108.917 14.8945C109.893 14.8945 110.671 15.1717 111.252 15.7261C111.833 16.2805 112.123 17.07 112.123 18.0945V24.1148H108.972V18.9442C108.972 18.3295 108.855 17.8956 108.62 17.6425C108.398 17.3773 108.076 17.2447 107.656 17.2447C107.162 17.2447 106.76 17.4195 106.451 17.769C106.142 18.1065 105.988 18.6308 105.988 19.3419V24.1148H102.836V15.0752H105.654L105.747 16.8108C106.043 16.172 106.463 15.696 107.007 15.3826C107.551 15.0572 108.187 14.8945 108.917 14.8945Z" fill="white"/>
<path d="M119.962 24.1138C119.616 25.078 119.239 25.8434 118.831 26.4098C118.424 26.9763 117.942 27.3801 117.386 27.6211C116.829 27.8742 116.156 28.0008 115.365 28.0008C114.315 28.0008 113.474 27.7778 112.844 27.3319L113.511 25.2709C113.709 25.4516 113.925 25.5722 114.16 25.6324C114.407 25.7048 114.722 25.7409 115.106 25.7409C115.489 25.7409 115.791 25.6746 116.014 25.542C116.236 25.4215 116.415 25.1985 116.551 24.8731L116.774 24.3127L115.699 21.8539L112.937 15.0742H116.403L117.83 20.2268L118.275 22.1432L118.776 20.1545L120.203 15.0742H123.354L119.962 24.1138Z" fill="white"/>
<path d="M134.036 21.7074V24.1119H124.711V12.1797H127.9V21.7074H134.036Z" fill="white"/>
<path d="M140.951 12C142.187 12 143.25 12.2471 144.14 12.7412C145.042 13.2234 145.734 13.9284 146.216 14.8565C146.698 15.7725 146.939 16.8693 146.939 18.1469C146.939 19.4245 146.698 20.5273 146.216 21.4554C145.734 22.3714 145.042 23.0765 144.14 23.5706C143.25 24.0527 142.187 24.2938 140.951 24.2938C139.716 24.2938 138.647 24.0527 137.744 23.5706C136.842 23.0765 136.15 22.3714 135.668 21.4554C135.186 20.5273 134.945 19.4245 134.945 18.1469C134.945 16.8693 135.186 15.7725 135.668 14.8565C136.15 13.9284 136.842 13.2234 137.744 12.7412C138.647 12.2471 139.716 12 140.951 12ZM140.951 14.4407C140.062 14.4407 139.382 14.754 138.912 15.3808C138.443 16.0075 138.208 16.9296 138.208 18.1469C138.208 19.3642 138.443 20.2863 138.912 20.913C139.382 21.5397 140.062 21.8531 140.951 21.8531C141.841 21.8531 142.515 21.5397 142.972 20.913C143.441 20.2863 143.676 19.3642 143.676 18.1469C143.676 16.9296 143.441 16.0075 142.972 15.3808C142.515 14.754 141.841 14.4407 140.951 14.4407Z" fill="white"/>
<path d="M160.106 17.6588V24.113H157.881L157.789 22.7028C157.084 23.7635 155.916 24.2938 154.285 24.2938C153.173 24.2938 152.184 24.0588 151.319 23.5887C150.466 23.1066 149.799 22.4075 149.317 21.4915C148.835 20.5635 148.594 19.4546 148.594 18.165C148.594 16.8874 148.841 15.7906 149.336 14.8746C149.83 13.9465 150.534 13.2354 151.449 12.7412C152.363 12.2471 153.445 12 154.693 12C156.089 12 157.214 12.2411 158.067 12.7232C158.919 13.2053 159.593 13.9827 160.087 15.0554L157.14 16.1943C156.991 15.6038 156.713 15.1638 156.306 14.8746C155.898 14.5853 155.391 14.4407 154.786 14.4407C153.846 14.4407 153.123 14.754 152.617 15.3808C152.122 16.0075 151.875 16.9296 151.875 18.1469C151.875 20.6539 152.876 21.9073 154.878 21.9073C155.632 21.9073 156.238 21.7386 156.695 21.4011C157.164 21.0637 157.399 20.5755 157.399 19.9367V19.7559H154.359V17.6588H160.106Z" fill="white"/>
<path d="M168.014 12C169.249 12 170.312 12.2471 171.202 12.7412C172.104 13.2234 172.796 13.9284 173.278 14.8565C173.76 15.7725 174.001 16.8693 174.001 18.1469C174.001 19.4245 173.76 20.5273 173.278 21.4554C172.796 22.3714 172.104 23.0765 171.202 23.5706C170.312 24.0527 169.249 24.2938 168.014 24.2938C166.778 24.2938 165.709 24.0527 164.807 23.5706C163.905 23.0765 163.212 22.3714 162.731 21.4554C162.249 20.5273 162.008 19.4245 162.008 18.1469C162.008 16.8693 162.249 15.7725 162.731 14.8565C163.212 13.9284 163.905 13.2234 164.807 12.7412C165.709 12.2471 166.778 12 168.014 12ZM168.014 14.4407C167.124 14.4407 166.444 14.754 165.974 15.3808C165.505 16.0075 165.27 16.9296 165.27 18.1469C165.27 19.3642 165.505 20.2863 165.974 20.913C166.444 21.5397 167.124 21.8531 168.014 21.8531C168.903 21.8531 169.577 21.5397 170.034 20.913C170.504 20.2863 170.738 19.3642 170.738 18.1469C170.738 16.9296 170.504 16.0075 170.034 15.3808C169.577 14.754 168.903 14.4407 168.014 14.4407Z" fill="white"/>
<path fill-rule="evenodd" clip-rule="evenodd" d="M8.53658 8.61862C8.53658 3.85869 4.71463 0 0 0V27.7126C0 30.5645 1.51824 33.2008 3.98498 34.6321L10.6326 38.4894C13.1286 39.9376 16.2111 39.9295 18.6994 38.4679L25.2184 34.6389C27.6644 33.2022 29.1667 30.5776 29.1667 27.7408V21.5537C29.1667 18.6652 27.6096 16.0011 25.0929 14.5834L18.9165 11.1043C16.3209 9.64221 13.1179 9.79262 10.6707 11.4915V20.1101L14.6723 17.9555V17.9278L20.6301 21.4637V27.6514L14.6723 31.1427L8.53658 27.8509V8.61862Z" fill="white"/>
<path fill-rule="evenodd" clip-rule="evenodd" d="M2.5 0C7.21463 0 11.0366 3.85869 11.0366 8.61862V12.4117L14.5834 10.4166L14.6257 10.5436C16.8089 9.72797 19.2726 9.89666 21.3516 11.0678L27.5929 14.5834C30.1096 16.0011 31.6667 18.6652 31.6667 21.5537V27.7408C31.6667 30.5776 30.1644 33.2022 27.7184 34.6389L21.1994 38.4679C18.7111 39.9295 15.6286 39.9376 13.1326 38.4894L6.48498 34.6321C4.01824 33.2008 2.5 30.5645 2.5 27.7126V0ZM12.4017 20.4702L11.0366 21.2149V27.8509L17.1723 31.1427L23.1301 27.6514V21.4637L17.1723 17.9278V17.9555L12.4017 20.4702Z" fill="#869DAE" fill-opacity="0.3"/>
</svg>
