<svg width="22" height="22" viewBox="0 0 22 22" fill="none" xmlns="http://www.w3.org/2000/svg">
<path d="M19.6293 8.97656H11.3451C10.0381 8.97656 8.97485 10.0398 8.97485 11.3468V15.8477L6.82848 17.3808C6.65913 17.5016 6.55859 17.697 6.55859 17.9051C6.55859 18.1134 6.65913 18.3088 6.82848 18.4296L9.0007 19.9811C9.17038 21.1228 10.1571 22.0015 11.3451 22.0015H19.6293C20.9363 22.0015 21.9996 20.9382 21.9996 19.631V11.3468C21.9996 10.0398 20.9363 8.97656 19.6293 8.97656ZM16.8438 18.033C16.6919 18.033 16.5746 17.9848 16.5401 17.8536L16.2776 16.9353H14.6966L14.4344 17.8536C14.3998 17.9848 14.2825 18.033 14.1306 18.033C13.8889 18.033 13.5645 17.8813 13.5645 17.6604C13.5645 17.6464 13.5713 17.6189 13.5782 17.5912L14.9107 13.2488C14.9728 13.0417 15.2283 12.9448 15.4837 12.9448C15.7461 12.9448 16.0015 13.0417 16.0636 13.2488L17.3961 17.5912C17.403 17.6189 17.4099 17.6396 17.4099 17.6604C17.4099 17.8742 17.0855 18.033 16.8438 18.033Z" fill="#878787"/>
<path d="M14.8828 16.2287H16.0842L15.4834 14.1094L14.8828 16.2287Z" fill="#878787"/>
<path d="M7.68567 11.3448C7.68567 10.4794 7.98829 9.68383 8.49232 9.0566C7.757 9.0566 7.07472 8.82649 6.51228 8.43559C5.94984 8.82666 5.26756 9.0566 4.53208 9.0566C4.33151 9.0566 4.1687 8.8938 4.1687 8.69306C4.1687 8.49232 4.33151 8.32968 4.53208 8.32968C5.04719 8.32968 5.52923 8.18701 5.94195 7.93995C5.44413 7.40269 5.11315 6.70899 5.03309 5.94128H4.53225C4.33151 5.94128 4.1687 5.77864 4.1687 5.5779C4.1687 5.37716 4.33151 5.21436 4.53225 5.21436H6.14907V4.33184C6.14907 4.13094 6.31171 3.9683 6.51245 3.9683C6.71319 3.9683 6.87583 4.13094 6.87583 4.33184V5.21436H8.49265C8.69339 5.21436 8.8562 5.37716 8.8562 5.5779C8.8562 5.77864 8.69339 5.94128 8.49265 5.94128H7.99181C7.91175 6.70899 7.58077 7.40269 7.08295 7.93995C7.4955 8.18735 7.97771 8.32968 8.49265 8.32968C8.6845 8.32968 8.84126 8.47839 8.85486 8.66687C9.5086 8.05861 10.3839 7.6855 11.3451 7.6855H13.0249V6.15377L15.1713 4.6207C15.3405 4.49985 15.441 4.30448 15.441 4.09636C15.441 3.88807 15.3405 3.6927 15.1713 3.57185L12.9991 2.02032C12.8292 0.878655 11.8425 0 10.6545 0H2.37044C1.06328 0 0 1.06328 0 2.37027V10.6546C0 11.9616 1.06328 13.0249 2.37044 13.0249H7.68567V11.3448Z" fill="#878787"/>
<path d="M6.51235 7.48572C6.91013 7.073 7.18019 6.53708 7.25924 5.94141H5.76562C5.84467 6.53708 6.1149 7.073 6.51235 7.48572Z" fill="#878787"/>
</svg>
