<svg width="16" height="24" viewBox="0 0 16 24" fill="none" xmlns="http://www.w3.org/2000/svg">
<path d="M7.80027 15.1579C9.66659 15.1579 11.1619 13.4653 11.1619 11.3684L11.1731 3.78947C11.1731 1.69263 9.66659 0 7.80027 0C5.93396 0 4.42741 1.69263 4.42741 3.78947V11.3684C4.42741 13.4653 5.93396 15.1579 7.80027 15.1579ZM14.6359 11.3684C14.1637 11.3684 13.7702 11.7474 13.7028 12.2653C13.2868 15.5621 10.6447 17.8105 7.80027 17.8105C4.95583 17.8105 2.31375 15.5747 1.89776 12.2653C1.86313 12.0152 1.75002 11.7874 1.57887 11.6229C1.40772 11.4584 1.18983 11.3681 0.964605 11.3684C0.379975 11.3684 -0.0697395 11.9495 0.00896063 12.5937C0.526133 16.3453 3.33685 19.2884 6.67599 19.8568V22.7368C6.67599 23.4316 7.18192 24 7.80027 24C8.41863 24 8.92456 23.4316 8.92456 22.7368V19.8568C12.2525 19.3137 15.0744 16.3453 15.5916 12.5937C15.6097 12.4408 15.5985 12.2853 15.5588 12.1376C15.519 11.9899 15.4516 11.8535 15.3611 11.7375C15.2706 11.6215 15.1591 11.5285 15.0341 11.4649C14.909 11.4012 14.7732 11.3683 14.6359 11.3684Z" fill="#878787"/>
</svg>
