<svg width="72" height="71" viewBox="0 0 72 71" fill="none" xmlns="http://www.w3.org/2000/svg">
<path d="M46.9539 31.2695L51.2329 35.825L46.6774 40.104L42.3984 35.5485L46.9539 31.2695Z" fill="#FFDE17"/>
<path d="M35.9891 41.5664L40.2681 46.1219L35.7126 50.4009L31.4336 45.8454L35.9891 41.5664Z" fill="#FFDE17"/>
<path d="M36.6571 20.3086L40.9361 24.8641L36.3806 29.1431L32.1016 24.5876L36.6571 20.3086Z" fill="#FFDE17"/>
<path d="M61.1718 36.1379C61.3805 29.4634 58.9778 23.1071 54.4059 18.2398C49.8341 13.3726 43.6405 10.577 36.966 10.368C30.2915 10.1593 23.9352 12.562 19.0679 17.1339C14.2006 21.7057 11.4051 27.8994 11.1961 34.5738C10.9873 41.2483 13.3901 47.6046 17.9619 52.4719C22.5338 57.3392 28.7274 60.1347 35.4019 60.3437C42.0764 60.5525 48.4327 58.1497 53.3 53.5779C58.1672 49.006 60.9628 42.8124 61.1718 36.1379ZM27.2929 45.717L36.1191 37.4265L44.4097 46.2527L35.5834 54.5433L27.2929 45.717ZM46.5451 44.247L38.2545 35.4207L47.0808 27.1301L55.3714 35.9564L46.5451 44.247ZM27.9582 24.459L36.7845 16.1684L45.075 24.9947L36.2487 33.2853L27.9582 24.459Z" fill="#FFDE17"/>
</svg>
