<svg width="133" height="133" viewBox="0 0 133 133" fill="none" xmlns="http://www.w3.org/2000/svg">
<g filter="url(#filter0_d)">
<path d="M66.5 116C94.9427 116 118 92.9427 118 64.5C118 36.0573 94.9427 13 66.5 13C38.0573 13 15 36.0573 15 64.5C15 92.9427 38.0573 116 66.5 116Z" fill="white"/>
</g>
<path d="M93.1 36H77.6333C76.0318 36 74.7333 37.2985 74.7333 38.9V57.2667H44.7667C42.0984 57.27 39.9366 59.4318 39.9333 62.1V86.2667H38.9667C38.4328 86.2667 38 86.6995 38 87.2333V91.1C38 92.7015 39.2985 94 40.9 94H83.4333C85.0348 94 86.3333 92.7015 86.3333 91.1V87.2333C86.3333 86.6995 85.9005 86.2667 85.3667 86.2667H84.4V82.4H86.3333C87.9348 82.4 89.2333 81.1015 89.2333 79.5V76.0336L90.4832 77.2835L91.8501 75.9165L88.9501 73.0165C88.5725 72.6394 87.9608 72.6394 87.5832 73.0165L84.6832 75.9165L86.0501 77.2835L87.3 76.0336V79.5C87.3 80.0338 86.8672 80.4667 86.3333 80.4667H84.4V70.8H93.1C94.7015 70.8 96 69.5015 96 67.9V38.9C96 37.2985 94.7015 36 93.1 36ZM77.6333 37.9333H93.1C93.6338 37.9333 94.0667 38.3662 94.0667 38.9V39.8667H76.6667V38.9C76.6667 38.3662 77.0995 37.9333 77.6333 37.9333ZM94.0667 41.8V63.0667H76.6667V41.8H94.0667ZM84.4 91.1C84.4 91.6338 83.9672 92.0667 83.4333 92.0667H40.9C40.3662 92.0667 39.9333 91.6338 39.9333 91.1V88.2H57.3333V90.1333C57.3333 90.6672 57.7662 91.1 58.3 91.1H66.0333C66.5672 91.1 67 90.6672 67 90.1333V88.2H84.4V91.1ZM59.2667 88.2H65.0667V89.1667H59.2667V88.2ZM82.4667 80.4667H62.1667V82.4H82.4667V86.2667H41.8667V62.1C41.8667 60.4985 43.1652 59.2 44.7667 59.2H74.7333V67.9C74.7333 69.5015 76.0318 70.8 77.6333 70.8H82.4667V80.4667ZM93.1 68.8667H77.6333C77.0995 68.8667 76.6667 68.4338 76.6667 67.9V65H94.0667V67.9C94.0667 68.4338 93.6338 68.8667 93.1 68.8667Z" fill="#3082B9"/>
<path d="M62.1667 55.3333C62.423 55.3333 62.6689 55.2313 62.8502 55.0501L65.7502 52.1501L64.3833 50.7832L63.1334 52.033V49.5333C63.1334 48.9995 63.5662 48.5666 64.1 48.5666H72.8001V46.6333H64.1C62.4985 46.6333 61.2 47.9318 61.2 49.5333V52.033L59.9502 50.7832L58.5833 52.1501L61.4833 55.0501C61.6645 55.2313 61.9104 55.3333 62.1667 55.3333Z" fill="#3082B9"/>
<path d="M66.7168 61.4165C66.5356 61.2353 66.2896 61.1333 66.0334 61.1333H56.3667C55.299 61.1333 54.4333 61.999 54.4333 63.0666V76.6C54.4333 77.6676 55.299 78.5333 56.3667 78.5333H67.9667C69.0344 78.5333 69.9 77.6676 69.9 76.6V65C69.9 64.7437 69.7981 64.4978 69.6168 64.3165L66.7168 61.4165ZM67.5664 65H66.0334V63.4669L67.5664 65ZM56.3667 76.6V63.0666H64.1V65.9666C64.1 66.5005 64.5328 66.9333 65.0667 66.9333H67.9667V76.6H56.3667Z" fill="#3082B9"/>
<defs>
<filter id="filter0_d" x="0" y="0" width="133" height="133" filterUnits="userSpaceOnUse" color-interpolation-filters="sRGB">
<feFlood flood-opacity="0" result="BackgroundImageFix"/>
<feColorMatrix in="SourceAlpha" type="matrix" values="0 0 0 0 0 0 0 0 0 0 0 0 0 0 0 0 0 0 127 0"/>
<feOffset dy="2"/>
<feGaussianBlur stdDeviation="7.5"/>
<feColorMatrix type="matrix" values="0 0 0 0 0 0 0 0 0 0 0 0 0 0 0 0 0 0 0.25 0"/>
<feBlend mode="normal" in2="BackgroundImageFix" result="effect1_dropShadow"/>
<feBlend mode="normal" in="SourceGraphic" in2="effect1_dropShadow" result="shape"/>
</filter>
</defs>
</svg>
