<svg width="256" height="187" viewBox="0 0 256 187" fill="none" xmlns="http://www.w3.org/2000/svg">
<path d="M71.0765 127.004C110.331 146.614 152.385 142.029 165.007 116.763C177.629 91.4974 156.039 55.1181 116.785 35.5079C77.5305 15.8977 35.4763 20.4826 22.8543 45.7486C10.2322 71.0146 31.822 107.394 71.0765 127.004Z" fill="#F9F9F0"/>
<path d="M191.5 76L255.153 186.25H127.847L191.5 76Z" fill="#E7FBFD"/>
<path d="M191.161 145.452H183.89L183.369 143.37L183.375 143.358L183.364 143.352L159.481 47.8084C159.228 46.8013 158.327 46.0968 157.29 46.0968H153.777C154.553 44.7623 155.032 43.2335 155.032 41.5806C155.032 37.3829 152.144 33.8784 148.258 32.869V19H143.742V32.869C139.856 33.8784 136.968 37.3829 136.968 41.5806C136.968 43.2335 137.446 44.7623 138.223 46.0968H134.71C133.673 46.0968 132.772 46.8013 132.519 47.8084L108.11 145.452H100.839C99.5899 145.452 98.5806 146.461 98.5806 147.71V156.742C98.5806 157.991 99.5899 159 100.839 159H191.161C192.41 159 193.419 157.991 193.419 156.742V147.71C193.419 146.461 192.41 145.452 191.161 145.452ZM167.646 100.29H124.354L146 78.645L167.646 100.29ZM149.193 75.452L159.228 65.417L165.918 92.177L149.193 75.452ZM166.767 104.806L146.061 118.61L125.246 104.806H166.767ZM126.082 92.177L132.772 65.417L142.807 75.452L126.082 92.177ZM141.987 121.326L114.154 139.881L122.092 108.133L141.987 121.326ZM146.068 124.034L178.365 145.452H113.942L146.068 124.034ZM150.141 121.317L169.908 108.139L177.787 139.651L150.141 121.317ZM141.484 41.5806C141.484 39.09 143.509 37.0645 146 37.0645C148.491 37.0645 150.516 39.09 150.516 41.5806C150.516 44.0713 148.491 46.0968 146 46.0968C143.509 46.0968 141.484 44.0713 141.484 41.5806ZM136.473 50.6129H155.527L157.95 60.309L146 72.259L134.05 60.309L136.473 50.6129ZM188.903 154.484H103.097V149.968H188.903V154.484Z" fill="#3082B9"/>
<path d="M179.871 19V23.5161C197.303 23.5161 211.484 37.6968 211.484 55.129H216C216 35.2084 199.791 19 179.871 19Z" fill="#3082B9"/>
<path d="M179.871 30.2905V34.8067C191.078 34.8067 200.193 43.9225 200.193 55.1292H204.71C204.71 41.4341 193.566 30.2905 179.871 30.2905Z" fill="#3082B9"/>
<path d="M179.871 41.5806V46.0967C184.852 46.0967 188.903 50.1477 188.903 55.129H193.419C193.419 47.657 187.343 41.5806 179.871 41.5806Z" fill="#3082B9"/>
<path d="M112.129 23.5161V19C92.2084 19 76 35.2084 76 55.129H80.5161C80.5161 37.6968 94.6968 23.5161 112.129 23.5161Z" fill="#3082B9"/>
<path d="M112.129 30.2905C98.4338 30.2905 87.2903 41.4341 87.2903 55.1292H91.8064C91.8064 43.9225 100.922 34.8067 112.129 34.8067V30.2905Z" fill="#3082B9"/>
<path d="M103.097 55.129C103.097 50.1477 107.148 46.0967 112.129 46.0967V41.5806C104.657 41.5806 98.5806 47.657 98.5806 55.129H103.097Z" fill="#3082B9"/>
</svg>
