<svg width="298" height="69" viewBox="0 0 298 69" fill="none" xmlns="http://www.w3.org/2000/svg">
<path d="M86.0753 35.3716C85.484 37.4315 84.3857 38.9765 82.7805 40.0064C81.1753 41.0158 79.2216 41.5205 76.9194 41.5205C74.8073 41.5205 72.9804 41.1085 71.4386 40.2845C69.8967 39.4399 68.714 38.2349 67.8902 36.6694C67.0665 35.0832 66.6547 33.1984 66.6547 31.0149C66.6547 28.852 67.0665 26.9774 67.8902 25.3913C68.714 23.8052 69.8967 22.6001 71.4386 21.7761C72.9804 20.9316 74.7968 20.5093 76.8877 20.5093C79.1688 20.5093 81.1014 20.9831 82.6854 21.9306C84.2695 22.8576 85.315 24.2583 85.8219 26.1329L81.038 28.0177C80.7423 26.7817 80.2882 25.9166 79.6757 25.4222C79.0632 24.9278 78.1972 24.6806 77.0778 24.6806C75.536 24.6806 74.3427 25.2265 73.4978 26.3183C72.653 27.3894 72.2306 28.955 72.2306 31.0149C72.2306 33.0748 72.6319 34.6506 73.4345 35.7424C74.2582 36.8136 75.441 37.3491 76.9828 37.3491C78.1444 37.3491 79.0632 37.0813 79.7391 36.5458C80.4149 36.0102 80.8796 35.1656 81.1331 34.0121L86.0753 35.3716Z" fill="#1976D2"/>
<path d="M96.3295 25.4531C98.9696 25.4531 101.018 26.1638 102.476 27.5851C103.954 28.9859 104.693 30.9531 104.693 33.4868C104.693 36.0205 103.954 37.998 102.476 39.4194C101.018 40.8201 98.9696 41.5205 96.3295 41.5205C93.6894 41.5205 91.6301 40.8201 90.1516 39.4194C88.6943 37.998 87.9656 36.0205 87.9656 33.4868C87.9656 30.9531 88.6943 28.9859 90.1516 27.5851C91.6301 26.1638 93.6894 25.4531 96.3295 25.4531ZM96.3295 29.1918C95.3157 29.1918 94.5659 29.5317 94.0801 30.2115C93.5943 30.8913 93.3514 31.983 93.3514 33.4868C93.3514 34.9905 93.5943 36.0823 94.0801 36.7621C94.5659 37.4418 95.3157 37.7817 96.3295 37.7817C97.3433 37.7817 98.0931 37.4418 98.5788 36.7621C99.0646 36.0823 99.3075 34.9905 99.3075 33.4868C99.3075 31.983 99.0646 30.8913 98.5788 30.2115C98.0931 29.5317 97.3433 29.1918 96.3295 29.1918Z" fill="#1976D2"/>
<path d="M128.409 25.4531C130.014 25.4531 131.313 25.9269 132.306 26.8744C133.319 27.822 133.826 29.1712 133.826 30.9222V41.2115H128.441V32.1272C128.441 30.3557 127.722 29.4699 126.286 29.4699C125.441 29.4699 124.765 29.7686 124.259 30.366C123.752 30.9634 123.498 31.8285 123.498 32.9615V41.2115H118.112V32.1272C118.112 30.3557 117.394 29.4699 115.958 29.4699C115.155 29.4699 114.49 29.7686 113.962 30.366C113.434 30.9634 113.17 31.8594 113.17 33.0542V41.2115H107.784V25.7621H112.6L112.758 28.7284C113.265 27.6572 113.973 26.8435 114.881 26.2874C115.789 25.7312 116.856 25.4531 118.081 25.4531C119.285 25.4531 120.32 25.7209 121.185 26.2565C122.073 26.792 122.706 27.5645 123.086 28.5739C123.593 27.5645 124.311 26.792 125.241 26.2565C126.191 25.7209 127.247 25.4531 128.409 25.4531Z" fill="#1976D2"/>
<path d="M147.779 25.4531C149.849 25.4531 151.454 26.1535 152.595 27.5542C153.735 28.955 154.305 30.9119 154.305 33.425C154.305 35.9793 153.725 37.9671 152.563 39.3885C151.401 40.8098 149.807 41.5205 147.779 41.5205C146.66 41.5205 145.688 41.263 144.864 40.748C144.062 40.233 143.439 39.5223 142.995 38.616V47.7002H137.609V25.7621H142.33L142.488 29.0374C142.932 27.9456 143.608 27.0804 144.516 26.4419C145.445 25.7827 146.533 25.4531 147.779 25.4531ZM145.91 37.6581C146.86 37.6581 147.589 37.3182 148.096 36.6385C148.624 35.9587 148.888 34.9081 148.888 33.4868C148.888 32.0654 148.624 31.0149 148.096 30.3351C147.589 29.6553 146.86 29.3154 145.91 29.3154C145.002 29.3154 144.284 29.6553 143.755 30.3351C143.249 31.0149 142.995 32.0139 142.995 33.3323V33.6413C142.995 34.9184 143.249 35.9072 143.755 36.6076C144.262 37.3079 144.981 37.6581 145.91 37.6581Z" fill="#1976D2"/>
<path d="M172.65 38.2143C173.052 38.2143 173.379 38.1731 173.633 38.0907L173.221 41.0261C172.608 41.3557 171.89 41.5205 171.066 41.5205C168.785 41.5205 167.423 40.7274 166.979 39.1413C166.029 40.7274 164.149 41.5205 161.34 41.5205C159.756 41.5205 158.542 41.1909 157.697 40.5317C156.852 39.8725 156.43 38.9147 156.43 37.6581C156.43 36.3398 156.905 35.2789 157.855 34.4755C158.827 33.6516 160.411 33.0233 162.607 32.5907L166.187 31.9109V31.3548C166.187 30.6544 165.987 30.0982 165.585 29.6862C165.184 29.2742 164.635 29.0682 163.938 29.0682C163.135 29.0682 162.481 29.2536 161.974 29.6244C161.467 29.9952 161.139 30.6029 160.992 31.4475L156.62 30.2115C156.894 28.7078 157.655 27.5439 158.901 26.7199C160.147 25.8754 161.826 25.4531 163.938 25.4531C166.409 25.4531 168.289 25.9475 169.577 26.9362C170.866 27.925 171.51 29.4081 171.51 31.3857V37.0092C171.51 37.8126 171.89 38.2143 172.65 38.2143ZM163.304 38.1216C164.044 38.1216 164.709 37.9259 165.3 37.5345C165.892 37.1225 166.187 36.587 166.187 35.9278V34.5991L163.621 35.1862C162.945 35.351 162.46 35.557 162.164 35.8042C161.889 36.0308 161.752 36.3604 161.752 36.793C161.752 37.2255 161.889 37.5551 162.164 37.7817C162.438 38.0083 162.819 38.1216 163.304 38.1216Z" fill="#1976D2"/>
<path d="M186.148 25.4531C187.817 25.4531 189.148 25.9269 190.14 26.8744C191.133 27.822 191.629 29.1712 191.629 30.9222V41.2115H186.243V32.3744C186.243 31.3239 186.043 30.5823 185.641 30.1497C185.261 29.6965 184.712 29.4699 183.994 29.4699C183.149 29.4699 182.463 29.7686 181.935 30.366C181.407 30.9428 181.143 31.8388 181.143 33.0542V41.2115H175.757V25.7621H180.572L180.731 28.7284C181.238 27.6366 181.956 26.8229 182.885 26.2874C183.815 25.7312 184.902 25.4531 186.148 25.4531Z" fill="#1976D2"/>
<path d="M205.02 41.2115C204.428 42.8594 203.784 44.1675 203.087 45.1356C202.39 46.1038 201.566 46.7939 200.616 47.2059C199.665 47.6384 198.514 47.8547 197.163 47.8547C195.367 47.8547 193.931 47.4736 192.854 46.7115L193.994 43.189C194.332 43.498 194.702 43.704 195.103 43.807C195.526 43.9306 196.064 43.9924 196.719 43.9924C197.374 43.9924 197.891 43.8791 198.271 43.6525C198.652 43.4465 198.958 43.0654 199.19 42.5092L199.57 41.5514L197.733 37.3491L193.012 25.7621H198.937L201.376 34.5682L202.137 37.8435L202.992 34.4446L205.431 25.7621H210.817L205.02 41.2115Z" fill="#1976D2"/>
<path d="M229.076 37.1019V41.2115H213.14V20.8183H218.589V37.1019H229.076Z" fill="#1976D2"/>
<path d="M240.895 20.5093C243.007 20.5093 244.824 20.9316 246.344 21.7761C247.886 22.6001 249.069 23.8052 249.893 25.3913C250.717 26.9568 251.128 28.8314 251.128 31.0149C251.128 33.1984 250.717 35.0832 249.893 36.6694C249.069 38.2349 247.886 39.4399 246.344 40.2845C244.824 41.1085 243.007 41.5205 240.895 41.5205C238.783 41.5205 236.956 41.1085 235.414 40.2845C233.873 39.4399 232.69 38.2349 231.866 36.6694C231.042 35.0832 230.631 33.1984 230.631 31.0149C230.631 28.8314 231.042 26.9568 231.866 25.3913C232.69 23.8052 233.873 22.6001 235.414 21.7761C236.956 20.9316 238.783 20.5093 240.895 20.5093ZM240.895 24.6806C239.375 24.6806 238.213 25.2162 237.41 26.2874C236.608 27.3585 236.206 28.9344 236.206 31.0149C236.206 33.0954 236.608 34.6712 237.41 35.7424C238.213 36.8136 239.375 37.3491 240.895 37.3491C242.416 37.3491 243.567 36.8136 244.349 35.7424C245.151 34.6712 245.552 33.0954 245.552 31.0149C245.552 28.9344 245.151 27.3585 244.349 26.2874C243.567 25.2162 242.416 24.6806 240.895 24.6806Z" fill="#1976D2"/>
<path d="M273.632 30.1806V41.2115H269.83L269.672 38.8014C268.468 40.6141 266.472 41.5205 263.684 41.5205C261.783 41.5205 260.093 41.1188 258.615 40.3154C257.158 39.4915 256.017 38.2967 255.193 36.7312C254.37 35.145 253.958 33.2499 253.958 31.0458C253.958 28.8623 254.38 26.9877 255.225 25.4222C256.07 23.836 257.274 22.6207 258.837 21.7761C260.4 20.9316 262.248 20.5093 264.381 20.5093C266.768 20.5093 268.69 20.9213 270.147 21.7452C271.604 22.5692 272.755 23.8978 273.6 25.7312L268.563 27.6778C268.309 26.6684 267.834 25.9166 267.137 25.4222C266.44 24.9278 265.574 24.6806 264.539 24.6806C262.934 24.6806 261.698 25.2162 260.833 26.2874C259.988 27.3585 259.565 28.9344 259.565 31.0149C259.565 35.2995 261.276 37.4418 264.698 37.4418C265.986 37.4418 267.021 37.1534 267.802 36.5767C268.605 35.9999 269.006 35.1656 269.006 34.0739V33.7649H263.811V30.1806H273.632Z" fill="#1976D2"/>
<path d="M287.149 20.5093C289.261 20.5093 291.077 20.9316 292.598 21.7761C294.14 22.6001 295.323 23.8052 296.146 25.3913C296.97 26.9568 297.382 28.8314 297.382 31.0149C297.382 33.1984 296.97 35.0832 296.146 36.6694C295.323 38.2349 294.14 39.4399 292.598 40.2845C291.077 41.1085 289.261 41.5205 287.149 41.5205C285.037 41.5205 283.21 41.1085 281.668 40.2845C280.126 39.4399 278.943 38.2349 278.12 36.6694C277.296 35.0832 276.884 33.1984 276.884 31.0149C276.884 28.8314 277.296 26.9568 278.12 25.3913C278.943 23.8052 280.126 22.6001 281.668 21.7761C283.21 20.9316 285.037 20.5093 287.149 20.5093ZM287.149 24.6806C285.628 24.6806 284.467 25.2162 283.664 26.2874C282.861 27.3585 282.46 28.9344 282.46 31.0149C282.46 33.0954 282.861 34.6712 283.664 35.7424C284.467 36.8136 285.628 37.3491 287.149 37.3491C288.67 37.3491 289.821 36.8136 290.602 35.7424C291.405 34.6712 291.806 33.0954 291.806 31.0149C291.806 28.9344 291.405 27.3585 290.602 26.2874C289.821 25.2162 288.67 24.6806 287.149 24.6806Z" fill="#1976D2"/>
<path fill-rule="evenodd" clip-rule="evenodd" d="M14.5898 14.73C14.5898 6.59485 8.05772 0 0 0V50.6303C0 53.4822 1.51824 56.1185 3.98499 57.5498L21.0366 67.4439C23.5326 68.8922 26.6151 68.884 29.1033 67.4225L45.9002 57.5566C48.3462 56.1199 49.8485 53.4953 49.8485 50.6585V33.5218C49.8485 30.6333 48.2914 27.9692 45.7748 26.5516L29.4454 17.3534C26.7734 15.8483 23.4761 16.0031 20.9569 17.752L18.2373 19.64V34.37L25.0762 30.6875V30.6403L35.2587 36.6834V47.2588L25.0762 53.2258L14.5898 47.5997V14.73Z" fill="#1976D2"/>
<path fill-rule="evenodd" clip-rule="evenodd" d="M4.27271 0C12.3304 0 18.8625 6.59485 18.8625 14.73V21.2128L23.6935 18.4954L25.3034 17.4697C27.7937 15.8831 30.9556 15.7973 33.5283 17.2465L50.0475 26.5516C52.5641 27.9692 54.1212 30.6333 54.1212 33.5218V50.6585C54.1212 53.4953 52.6189 56.1199 50.1729 57.5566L33.376 67.4225C30.8878 68.884 27.8053 68.8922 25.3093 67.4439L8.25769 57.5498C5.79095 56.1185 4.27271 53.4822 4.27271 50.6303V0ZM21.2025 34.9819L18.8625 36.2583V47.5997L29.3489 53.2258L39.5314 47.2588V36.6834L29.3489 30.6403V30.6875L21.2025 34.9819Z" fill="#869DAE" fill-opacity="0.3"/>
</svg>
