<svg width="222" height="53" viewBox="0 0 222 53" fill="none" xmlns="http://www.w3.org/2000/svg">
<path d="M64.3713 26.4312C63.9309 27.9652 63.113 29.1157 61.9176 29.8827C60.7223 30.6343 59.2674 31.0102 57.553 31.0102C55.9802 31.0102 54.6197 30.7034 53.4715 30.0898C52.3234 29.4608 51.4426 28.5635 50.8292 27.3976C50.2158 26.2165 49.9091 24.8129 49.9091 23.1868C49.9091 21.5762 50.2158 20.1802 50.8292 18.9991C51.4426 17.8179 52.3234 16.9205 53.4715 16.3069C54.6197 15.678 55.9723 15.3635 57.5294 15.3635C59.2281 15.3635 60.6672 15.7163 61.8469 16.422C63.0265 17.1123 63.805 18.1554 64.1825 19.5513L60.6201 20.9549C60.3999 20.0345 60.0617 19.3902 59.6056 19.0221C59.1495 18.6539 58.5046 18.4698 57.671 18.4698C56.5228 18.4698 55.6342 18.8763 55.005 19.6894C54.3759 20.487 54.0613 21.6529 54.0613 23.1868C54.0613 24.7208 54.3602 25.8943 54.9579 26.7073C55.5713 27.505 56.452 27.9038 57.6002 27.9038C58.4653 27.9038 59.1495 27.7044 59.6528 27.3056C60.1561 26.9068 60.5021 26.2778 60.6908 25.4188L64.3713 26.4312Z" fill="white"/>
<path d="M72.0073 19.0451C73.9734 19.0451 75.499 19.5743 76.5843 20.6328C77.6852 21.6759 78.2357 23.1408 78.2357 25.0276C78.2357 26.9144 77.6852 28.387 76.5843 29.4455C75.499 30.4886 73.9734 31.0102 72.0073 31.0102C70.0413 31.0102 68.5078 30.4886 67.4068 29.4455C66.3215 28.387 65.7789 26.9144 65.7789 25.0276C65.7789 23.1408 66.3215 21.6759 67.4068 20.6328C68.5078 19.5743 70.0413 19.0451 72.0073 19.0451ZM72.0073 21.8293C71.2524 21.8293 70.694 22.0824 70.3322 22.5886C69.9705 23.0948 69.7896 23.9078 69.7896 25.0276C69.7896 26.1474 69.9705 26.9604 70.3322 27.4667C70.694 27.9729 71.2524 28.226 72.0073 28.226C72.7623 28.226 73.3206 27.9729 73.6824 27.4667C74.0441 26.9604 74.225 26.1474 74.225 25.0276C74.225 23.9078 74.0441 23.0948 73.6824 22.5886C73.3206 22.0824 72.7623 21.8293 72.0073 21.8293Z" fill="white"/>
<path d="M95.8962 19.0451C97.0916 19.0451 98.0588 19.3979 98.7981 20.1035C99.553 20.8092 99.9305 21.8139 99.9305 23.1178V30.7801H95.9198V24.0152C95.9198 22.696 95.385 22.0364 94.3155 22.0364C93.6864 22.0364 93.1831 22.2588 92.8056 22.7036C92.4281 23.1485 92.2394 23.7928 92.2394 24.6365V30.7801H88.2286V24.0152C88.2286 22.696 87.6939 22.0364 86.6244 22.0364C86.0267 22.0364 85.5312 22.2588 85.138 22.7036C84.7448 23.1485 84.5482 23.8158 84.5482 24.7055V30.7801H80.5375V19.2752H84.1235L84.2415 21.4841C84.619 20.6864 85.1459 20.0805 85.8222 19.6664C86.4985 19.2522 87.2928 19.0451 88.205 19.0451C89.1016 19.0451 89.8723 19.2445 90.5171 19.6433C91.1777 20.0422 91.6496 20.6174 91.9327 21.3691C92.3101 20.6174 92.8449 20.0422 93.537 19.6433C94.2447 19.2445 95.0311 19.0451 95.8962 19.0451Z" fill="white"/>
<path d="M110.321 19.0451C111.862 19.0451 113.058 19.5666 113.907 20.6098C114.756 21.6529 115.181 23.1101 115.181 24.9816C115.181 26.8837 114.748 28.364 113.883 29.4225C113.018 30.4809 111.831 31.0102 110.321 31.0102C109.487 31.0102 108.764 30.8184 108.15 30.4349C107.553 30.0514 107.089 29.5222 106.758 28.8472V35.6121H102.748V19.2752H106.263L106.381 21.7142C106.711 20.9012 107.214 20.2569 107.891 19.7814C108.583 19.2905 109.393 19.0451 110.321 19.0451ZM108.929 28.1339C109.637 28.1339 110.179 27.8808 110.557 27.3746C110.95 26.8684 111.147 26.0861 111.147 25.0276C111.147 23.9692 110.95 23.1868 110.557 22.6806C110.179 22.1744 109.637 21.9213 108.929 21.9213C108.253 21.9213 107.718 22.1744 107.325 22.6806C106.947 23.1868 106.758 23.9308 106.758 24.9126V25.1427C106.758 26.0937 106.947 26.8301 107.325 27.3516C107.702 27.8732 108.237 28.1339 108.929 28.1339Z" fill="white"/>
<path d="M128.842 28.5481C129.141 28.5481 129.385 28.5174 129.573 28.4561L129.267 30.642C128.811 30.8874 128.276 31.0102 127.662 31.0102C125.964 31.0102 124.949 30.4196 124.619 29.2384C123.911 30.4196 122.511 31.0102 120.42 31.0102C119.24 31.0102 118.336 30.7647 117.706 30.2738C117.077 29.783 116.763 29.0697 116.763 28.1339C116.763 27.1522 117.117 26.3622 117.824 25.7639C118.548 25.1503 119.727 24.6825 121.363 24.3603L124.029 23.8541V23.4399C124.029 22.9184 123.88 22.5042 123.581 22.1974C123.282 21.8906 122.873 21.7372 122.354 21.7372C121.756 21.7372 121.269 21.8753 120.891 22.1514C120.514 22.4275 120.27 22.88 120.16 23.509L116.904 22.5886C117.109 21.4688 117.675 20.6021 118.603 19.9885C119.531 19.3596 120.781 19.0451 122.354 19.0451C124.194 19.0451 125.594 19.4132 126.554 20.1496C127.513 20.8859 127.993 21.9903 127.993 23.463V27.6507C127.993 28.249 128.276 28.5481 128.842 28.5481ZM121.882 28.4791C122.433 28.4791 122.928 28.3334 123.369 28.0419C123.809 27.7351 124.029 27.3363 124.029 26.8454V25.856L122.118 26.2932C121.615 26.4159 121.253 26.5693 121.033 26.7534C120.828 26.9221 120.726 27.1675 120.726 27.4897C120.726 27.8118 120.828 28.0572 121.033 28.226C121.237 28.3947 121.52 28.4791 121.882 28.4791Z" fill="white"/>
<path d="M138.894 19.0451C140.136 19.0451 141.127 19.3979 141.866 20.1035C142.606 20.8092 142.975 21.8139 142.975 23.1178V30.7801H138.965V24.1993C138.965 23.4169 138.815 22.8647 138.516 22.5426C138.233 22.2051 137.824 22.0364 137.289 22.0364C136.66 22.0364 136.149 22.2588 135.756 22.7036C135.363 23.1332 135.166 23.8004 135.166 24.7055V30.7801H131.155V19.2752H134.741L134.859 21.4841C135.237 20.6711 135.772 20.0652 136.464 19.6664C137.156 19.2522 137.966 19.0451 138.894 19.0451Z" fill="white"/>
<path d="M152.947 30.7801C152.506 32.0072 152.027 32.9813 151.508 33.7023C150.989 34.4233 150.375 34.9372 149.667 35.244C148.96 35.5661 148.102 35.7272 147.096 35.7272C145.759 35.7272 144.689 35.4434 143.887 34.8758L144.737 32.2527C144.988 32.4828 145.263 32.6362 145.562 32.7129C145.877 32.8049 146.278 32.8509 146.766 32.8509C147.253 32.8509 147.638 32.7666 147.922 32.5978C148.205 32.4444 148.433 32.1606 148.606 31.7465L148.889 31.0332L147.52 27.9038L144.005 19.2752H148.417L150.234 25.833L150.8 28.272L151.437 25.7409L153.253 19.2752H157.264L152.947 30.7801Z" fill="white"/>
<path d="M170.861 27.7198V30.7801H158.994V15.5936H163.052V27.7198H170.861Z" fill="white"/>
<path d="M179.663 15.3635C181.236 15.3635 182.588 15.678 183.721 16.3069C184.869 16.9205 185.75 17.8179 186.363 18.9991C186.976 20.1649 187.283 21.5608 187.283 23.1868C187.283 24.8129 186.976 26.2165 186.363 27.3976C185.75 28.5635 184.869 29.4608 183.721 30.0898C182.588 30.7034 181.236 31.0102 179.663 31.0102C178.09 31.0102 176.729 30.7034 175.581 30.0898C174.433 29.4608 173.552 28.5635 172.939 27.3976C172.325 26.2165 172.019 24.8129 172.019 23.1868C172.019 21.5608 172.325 20.1649 172.939 18.9991C173.552 17.8179 174.433 16.9205 175.581 16.3069C176.729 15.678 178.09 15.3635 179.663 15.3635ZM179.663 18.4698C178.53 18.4698 177.665 18.8687 177.068 19.6664C176.47 20.464 176.171 21.6375 176.171 23.1868C176.171 24.7362 176.47 25.9097 177.068 26.7073C177.665 27.505 178.53 27.9038 179.663 27.9038C180.795 27.9038 181.652 27.505 182.234 26.7073C182.832 25.9097 183.131 24.7362 183.131 23.1868C183.131 21.6375 182.832 20.464 182.234 19.6664C181.652 18.8687 180.795 18.4698 179.663 18.4698Z" fill="white"/>
<path d="M204.041 22.5656V30.7801H201.21L201.092 28.9853C200.195 30.3352 198.709 31.0102 196.633 31.0102C195.217 31.0102 193.959 30.711 192.858 30.1128C191.773 29.4992 190.924 28.6095 190.31 27.4436C189.697 26.2625 189.39 24.8512 189.39 23.2099C189.39 21.5838 189.705 20.1879 190.334 19.0221C190.963 17.8409 191.859 16.9359 193.023 16.3069C194.187 15.678 195.563 15.3635 197.152 15.3635C198.929 15.3635 200.361 15.6703 201.446 16.2839C202.531 16.8975 203.388 17.8869 204.017 19.2522L200.266 20.7018C200.077 19.9501 199.724 19.3902 199.204 19.0221C198.685 18.6539 198.041 18.4698 197.27 18.4698C196.075 18.4698 195.154 18.8687 194.51 19.6664C193.88 20.464 193.566 21.6375 193.566 23.1868C193.566 26.3775 194.84 27.9729 197.388 27.9729C198.347 27.9729 199.118 27.7581 199.7 27.3286C200.298 26.8991 200.596 26.2778 200.596 25.4648V25.2347H196.727V22.5656H204.041Z" fill="white"/>
<path d="M214.107 15.3635C215.68 15.3635 217.032 15.678 218.165 16.3069C219.313 16.9205 220.194 17.8179 220.807 18.9991C221.421 20.1649 221.727 21.5608 221.727 23.1868C221.727 24.8129 221.421 26.2165 220.807 27.3976C220.194 28.5635 219.313 29.4608 218.165 30.0898C217.032 30.7034 215.68 31.0102 214.107 31.0102C212.534 31.0102 211.174 30.7034 210.025 30.0898C208.877 29.4608 207.996 28.5635 207.383 27.3976C206.77 26.2165 206.463 24.8129 206.463 23.1868C206.463 21.5608 206.77 20.1649 207.383 18.9991C207.996 17.8179 208.877 16.9205 210.025 16.3069C211.174 15.678 212.534 15.3635 214.107 15.3635ZM214.107 18.4698C212.974 18.4698 212.109 18.8687 211.512 19.6664C210.914 20.464 210.615 21.6375 210.615 23.1868C210.615 24.7362 210.914 25.9097 211.512 26.7073C212.109 27.505 212.974 27.9038 214.107 27.9038C215.239 27.9038 216.096 27.505 216.678 26.7073C217.276 25.9097 217.575 24.7362 217.575 23.1868C217.575 21.6375 217.276 20.464 216.678 19.6664C216.096 18.8687 215.239 18.4698 214.107 18.4698Z" fill="white"/>
<path fill-rule="evenodd" clip-rule="evenodd" d="M11.1374 11.06C11.1374 5.00188 6.27314 0.0908203 0.272705 0.0908203V36.6179C0.272705 39.4698 1.79094 42.1061 4.25769 43.5374L14.9069 49.7165C17.4028 51.1648 20.4853 51.1566 22.9736 49.6951L33.4456 43.5442C35.8916 42.1075 37.3939 39.4829 37.3939 36.6461V26.2476C37.3939 23.3592 35.8369 20.695 33.3202 19.2774L23.3156 13.6419C20.6436 12.1368 17.3464 12.2916 14.8272 14.0405L13.8536 14.7164V25.6855L18.9465 22.9432V22.9081L26.5292 27.4082V35.2835L18.9465 39.727L11.1374 35.5374V11.06Z" fill="white"/>
<path fill-rule="evenodd" clip-rule="evenodd" d="M3.45459 0.0908203C9.45502 0.0908203 14.3193 5.00188 14.3193 11.06V15.8875L17.918 13.8633L18.0829 13.7582C20.5732 12.1716 23.735 12.0858 26.3077 13.535L36.5021 19.2774C39.0187 20.695 40.5758 23.3592 40.5758 26.2476V36.6461C40.5758 39.4829 39.0735 42.1075 36.6275 43.5442L26.1555 49.6951C23.6672 51.1566 20.5847 51.1648 18.0888 49.7165L7.43957 43.5374C4.97283 42.1061 3.45459 39.4698 3.45459 36.6179V0.0908203ZM16.0577 26.1434L14.3193 27.0916V35.5374L22.1284 39.727L29.7111 35.2835V27.4082L22.1284 22.9081V22.9432L16.0577 26.1434Z" fill="#869DAE" fill-opacity="0.3"/>
</svg>
