<svg width="376" height="121" viewBox="0 0 376 121" fill="none" xmlns="http://www.w3.org/2000/svg">
<path d="M125.384 61.6216C124.793 63.6815 123.695 65.2265 122.089 66.2564C120.484 67.2658 118.531 67.7705 116.228 67.7705C114.116 67.7705 112.289 67.3585 110.748 66.5345C109.206 65.6899 108.023 64.4849 107.199 62.9194C106.375 61.3332 105.964 59.4484 105.964 57.2649C105.964 55.102 106.375 53.2274 107.199 51.6413C108.023 50.0552 109.206 48.8501 110.748 48.0261C112.289 47.1816 114.106 46.7593 116.197 46.7593C118.478 46.7593 120.41 47.2331 121.994 48.1806C123.578 49.1076 124.624 50.5083 125.131 52.3829L120.347 54.2677C120.051 53.0317 119.597 52.1666 118.985 51.6722C118.372 51.1778 117.506 50.9306 116.387 50.9306C114.845 50.9306 113.652 51.4765 112.807 52.5683C111.962 53.6394 111.54 55.205 111.54 57.2649C111.54 59.3248 111.941 60.9006 112.743 61.9924C113.567 63.0636 114.75 63.5991 116.292 63.5991C117.453 63.5991 118.372 63.3313 119.048 62.7958C119.724 62.2602 120.189 61.4156 120.442 60.2621L125.384 61.6216Z" fill="#1976D2"/>
<path d="M135.638 51.7031C138.279 51.7031 140.327 52.4138 141.785 53.8351C143.263 55.2359 144.002 57.2031 144.002 59.7368C144.002 62.2705 143.263 64.248 141.785 65.6694C140.327 67.0701 138.279 67.7705 135.638 67.7705C132.998 67.7705 130.939 67.0701 129.461 65.6694C128.003 64.248 127.275 62.2705 127.275 59.7368C127.275 57.2031 128.003 55.2359 129.461 53.8351C130.939 52.4138 132.998 51.7031 135.638 51.7031ZM135.638 55.4418C134.625 55.4418 133.875 55.7817 133.389 56.4615C132.903 57.1413 132.66 58.233 132.66 59.7368C132.66 61.2405 132.903 62.3323 133.389 63.0121C133.875 63.6918 134.625 64.0317 135.638 64.0317C136.652 64.0317 137.402 63.6918 137.888 63.0121C138.374 62.3323 138.616 61.2405 138.616 59.7368C138.616 58.233 138.374 57.1413 137.888 56.4615C137.402 55.7817 136.652 55.4418 135.638 55.4418Z" fill="#1976D2"/>
<path d="M167.718 51.7031C169.323 51.7031 170.622 52.1769 171.615 53.1244C172.628 54.072 173.135 55.4212 173.135 57.1722V67.4615H167.749V58.3772C167.749 56.6057 167.031 55.7199 165.595 55.7199C164.75 55.7199 164.074 56.0186 163.568 56.616C163.061 57.2134 162.807 58.0785 162.807 59.2115V67.4615H157.421V58.3772C157.421 56.6057 156.703 55.7199 155.267 55.7199C154.464 55.7199 153.799 56.0186 153.271 56.616C152.743 57.2134 152.479 58.1094 152.479 59.3042V67.4615H147.093V52.0121H151.909L152.067 54.9784C152.574 53.9072 153.282 53.0935 154.19 52.5374C155.098 51.9812 156.165 51.7031 157.39 51.7031C158.594 51.7031 159.628 51.9709 160.494 52.5065C161.382 53.042 162.015 53.8145 162.395 54.8239C162.902 53.8145 163.62 53.042 164.55 52.5065C165.5 51.9709 166.556 51.7031 167.718 51.7031Z" fill="#1976D2"/>
<path d="M187.088 51.7031C189.158 51.7031 190.763 52.4035 191.904 53.8042C193.044 55.205 193.614 57.1619 193.614 59.675C193.614 62.2293 193.034 64.2171 191.872 65.6385C190.71 67.0598 189.116 67.7705 187.088 67.7705C185.969 67.7705 184.997 67.513 184.173 66.998C183.371 66.483 182.748 65.7723 182.304 64.866V73.9502H176.918V52.0121H181.639L181.797 55.2874C182.241 54.1956 182.917 53.3304 183.825 52.6919C184.754 52.0327 185.842 51.7031 187.088 51.7031ZM185.219 63.9081C186.169 63.9081 186.898 63.5682 187.405 62.8885C187.933 62.2087 188.197 61.1581 188.197 59.7368C188.197 58.3154 187.933 57.2649 187.405 56.5851C186.898 55.9053 186.169 55.5654 185.219 55.5654C184.311 55.5654 183.592 55.9053 183.064 56.5851C182.558 57.2649 182.304 58.2639 182.304 59.5823V59.8913C182.304 61.1684 182.558 62.1572 183.064 62.8576C183.571 63.5579 184.289 63.9081 185.219 63.9081Z" fill="#1976D2"/>
<path d="M211.959 64.4643C212.361 64.4643 212.688 64.4231 212.941 64.3407L212.53 67.2761C211.917 67.6057 211.199 67.7705 210.375 67.7705C208.094 67.7705 206.732 66.9774 206.288 65.3913C205.338 66.9774 203.458 67.7705 200.649 67.7705C199.065 67.7705 197.851 67.4409 197.006 66.7817C196.161 66.1225 195.738 65.1647 195.738 63.9081C195.738 62.5898 196.214 61.5289 197.164 60.7255C198.136 59.9016 199.72 59.2733 201.916 58.8407L205.496 58.1609V57.6048C205.496 56.9044 205.296 56.3482 204.894 55.9362C204.493 55.5242 203.944 55.3182 203.247 55.3182C202.444 55.3182 201.79 55.5036 201.283 55.8744C200.776 56.2452 200.448 56.8529 200.301 57.6975L195.929 56.4615C196.203 54.9578 196.964 53.7939 198.21 52.9699C199.456 52.1254 201.135 51.7031 203.247 51.7031C205.718 51.7031 207.598 52.1975 208.886 53.1862C210.175 54.175 210.819 55.6581 210.819 57.6357V63.2592C210.819 64.0626 211.199 64.4643 211.959 64.4643ZM202.613 64.3716C203.353 64.3716 204.018 64.1759 204.609 63.7845C205.201 63.3725 205.496 62.837 205.496 62.1778V60.8491L202.93 61.4362C202.254 61.601 201.769 61.807 201.473 62.0542C201.198 62.2808 201.061 62.6104 201.061 63.043C201.061 63.4755 201.198 63.8051 201.473 64.0317C201.747 64.2583 202.128 64.3716 202.613 64.3716Z" fill="#1976D2"/>
<path d="M225.457 51.7031C227.126 51.7031 228.457 52.1769 229.449 53.1244C230.442 54.072 230.938 55.4212 230.938 57.1722V67.4615H225.552V58.6244C225.552 57.5739 225.352 56.8323 224.95 56.3997C224.57 55.9465 224.021 55.7199 223.303 55.7199C222.458 55.7199 221.772 56.0186 221.244 56.616C220.716 57.1928 220.452 58.0888 220.452 59.3042V67.4615H215.066V52.0121H219.881L220.04 54.9784C220.547 53.8866 221.265 53.0729 222.194 52.5374C223.124 51.9812 224.211 51.7031 225.457 51.7031Z" fill="#1976D2"/>
<path d="M244.329 67.4615C243.737 69.1094 243.093 70.4175 242.396 71.3856C241.699 72.3538 240.875 73.0439 239.925 73.4559C238.974 73.8884 237.823 74.1047 236.472 74.1047C234.676 74.1047 233.24 73.7236 232.163 72.9615L233.303 69.439C233.641 69.748 234.011 69.954 234.412 70.057C234.835 70.1806 235.373 70.2424 236.028 70.2424C236.683 70.2424 237.2 70.1291 237.58 69.9025C237.961 69.6965 238.267 69.3154 238.499 68.7592L238.879 67.8014L237.042 63.5991L232.321 52.0121H238.246L240.685 60.8182L241.446 64.0935L242.301 60.6946L244.74 52.0121H250.126L244.329 67.4615Z" fill="#1976D2"/>
<path d="M268.385 63.3519V67.4615H252.449V47.0683H257.898V63.3519H268.385Z" fill="#1976D2"/>
<path d="M280.204 46.7593C282.316 46.7593 284.133 47.1816 285.653 48.0261C287.195 48.8501 288.378 50.0552 289.202 51.6413C290.025 53.2068 290.437 55.0814 290.437 57.2649C290.437 59.4484 290.025 61.3332 289.202 62.9194C288.378 64.4849 287.195 65.6899 285.653 66.5345C284.133 67.3585 282.316 67.7705 280.204 67.7705C278.092 67.7705 276.265 67.3585 274.723 66.5345C273.182 65.6899 271.999 64.4849 271.175 62.9194C270.351 61.3332 269.939 59.4484 269.939 57.2649C269.939 55.0814 270.351 53.2068 271.175 51.6413C271.999 50.0552 273.182 48.8501 274.723 48.0261C276.265 47.1816 278.092 46.7593 280.204 46.7593ZM280.204 50.9306C278.684 50.9306 277.522 51.4662 276.719 52.5374C275.917 53.6085 275.515 55.1844 275.515 57.2649C275.515 59.3454 275.917 60.9212 276.719 61.9924C277.522 63.0636 278.684 63.5991 280.204 63.5991C281.725 63.5991 282.876 63.0636 283.658 61.9924C284.46 60.9212 284.861 59.3454 284.861 57.2649C284.861 55.1844 284.46 53.6085 283.658 52.5374C282.876 51.4662 281.725 50.9306 280.204 50.9306Z" fill="#1976D2"/>
<path d="M312.941 56.4306V67.4615H309.139L308.981 65.0514C307.777 66.8641 305.781 67.7705 302.993 67.7705C301.092 67.7705 299.402 67.3688 297.924 66.5654C296.466 65.7415 295.326 64.5467 294.502 62.9812C293.678 61.395 293.267 59.4999 293.267 57.2958C293.267 55.1123 293.689 53.2377 294.534 51.6722C295.379 50.086 296.583 48.8707 298.146 48.0261C299.709 47.1816 301.557 46.7593 303.69 46.7593C306.076 46.7593 307.998 47.1713 309.456 47.9952C310.913 48.8192 312.064 50.1478 312.909 51.9812L307.872 53.9278C307.618 52.9184 307.143 52.1666 306.446 51.6722C305.749 51.1778 304.883 50.9306 303.848 50.9306C302.243 50.9306 301.007 51.4662 300.141 52.5374C299.297 53.6085 298.874 55.1844 298.874 57.2649C298.874 61.5495 300.585 63.6918 304.007 63.6918C305.295 63.6918 306.33 63.4034 307.111 62.8267C307.914 62.2499 308.315 61.4156 308.315 60.3239V60.0149H303.12V56.4306H312.941Z" fill="#1976D2"/>
<path d="M326.458 46.7593C328.57 46.7593 330.386 47.1816 331.907 48.0261C333.449 48.8501 334.632 50.0552 335.455 51.6413C336.279 53.2068 336.691 55.0814 336.691 57.2649C336.691 59.4484 336.279 61.3332 335.455 62.9194C334.632 64.4849 333.449 65.6899 331.907 66.5345C330.386 67.3585 328.57 67.7705 326.458 67.7705C324.346 67.7705 322.519 67.3585 320.977 66.5345C319.435 65.6899 318.252 64.4849 317.429 62.9194C316.605 61.3332 316.193 59.4484 316.193 57.2649C316.193 55.0814 316.605 53.2068 317.429 51.6413C318.252 50.0552 319.435 48.8501 320.977 48.0261C322.519 47.1816 324.346 46.7593 326.458 46.7593ZM326.458 50.9306C324.937 50.9306 323.775 51.4662 322.973 52.5374C322.17 53.6085 321.769 55.1844 321.769 57.2649C321.769 59.3454 322.17 60.9212 322.973 61.9924C323.775 63.0636 324.937 63.5991 326.458 63.5991C327.979 63.5991 329.13 63.0636 329.911 61.9924C330.714 60.9212 331.115 59.3454 331.115 57.2649C331.115 55.1844 330.714 53.6085 329.911 52.5374C329.13 51.4662 327.979 50.9306 326.458 50.9306Z" fill="#1976D2"/>
<path fill-rule="evenodd" clip-rule="evenodd" d="M53.8989 40.9802C53.8989 32.8451 47.3668 26.2502 39.3091 26.2502V76.8805C39.3091 79.7324 40.8273 82.3687 43.2941 83.8L60.3457 93.6942C62.8417 95.1424 65.9242 95.1342 68.4124 93.6727L85.2093 83.8069C87.6553 82.3701 89.1576 79.7455 89.1576 76.9088V59.7721C89.1576 56.8836 87.6005 54.2194 85.0838 52.8018L68.7545 43.6036C66.0825 42.0985 62.7852 42.2533 60.266 44.0022L57.5463 45.8902V60.6203L64.3853 56.9378V56.8905L74.5678 62.9336V73.509L64.3853 79.476L53.8989 73.85V40.9802Z" fill="#1976D2"/>
<path fill-rule="evenodd" clip-rule="evenodd" d="M43.5818 26.2502C51.6395 26.2502 58.1716 32.8451 58.1716 40.9802V47.4631L63.0026 44.7456L64.6125 43.7199C67.1028 42.1333 70.2646 42.0475 72.8374 43.4967L89.3565 52.8018C91.8732 54.2194 93.4303 56.8836 93.4303 59.7721V76.9088C93.4303 79.7455 91.928 82.3701 89.482 83.8069L72.6851 93.6727C70.1969 95.1342 67.1144 95.1424 64.6184 93.6942L47.5668 83.8C45.1 82.3687 43.5818 79.7324 43.5818 76.8805V26.2502ZM60.5116 61.2322L58.1716 62.5085V73.85L68.658 79.476L78.8405 73.509V62.9336L68.658 56.8905V56.9378L60.5116 61.2322Z" fill="#869DAE" fill-opacity="0.3"/>
</svg>
