<svg width="222" height="51" viewBox="0 0 222 51" fill="none" xmlns="http://www.w3.org/2000/svg">
<path d="M64.3714 26.4312C63.931 27.9652 63.1131 29.1157 61.9178 29.8827C60.7224 30.6343 59.2675 31.0102 57.5532 31.0102C55.9803 31.0102 54.6198 30.7034 53.4716 30.0898C52.3235 29.4608 51.4427 28.5635 50.8293 27.3976C50.2159 26.2165 49.9092 24.8129 49.9092 23.1868C49.9092 21.5762 50.2159 20.1802 50.8293 18.9991C51.4427 17.8179 52.3235 16.9205 53.4716 16.3069C54.6198 15.678 55.9725 15.3635 57.5296 15.3635C59.2282 15.3635 60.6674 15.7163 61.847 16.422C63.0266 17.1123 63.8052 18.1554 64.1826 19.5513L60.6202 20.9549C60.4 20.0345 60.0618 19.3902 59.6057 19.0221C59.1496 18.6539 58.5047 18.4698 57.6711 18.4698C56.5229 18.4698 55.6343 18.8763 55.0052 19.6894C54.376 20.487 54.0615 21.6529 54.0615 23.1868C54.0615 24.7208 54.3603 25.8943 54.958 26.7073C55.5714 27.505 56.4522 27.9038 57.6003 27.9038C58.4654 27.9038 59.1496 27.7044 59.6529 27.3056C60.1562 26.9068 60.5022 26.2778 60.691 25.4188L64.3714 26.4312Z" fill="white"/>
<path d="M72.0074 19.0451C73.9735 19.0451 75.4991 19.5743 76.5844 20.6328C77.6854 21.6759 78.2359 23.1408 78.2359 25.0276C78.2359 26.9144 77.6854 28.387 76.5844 29.4455C75.4991 30.4886 73.9735 31.0102 72.0074 31.0102C70.0414 31.0102 68.5079 30.4886 67.4069 29.4455C66.3216 28.387 65.779 26.9144 65.779 25.0276C65.779 23.1408 66.3216 21.6759 67.4069 20.6328C68.5079 19.5743 70.0414 19.0451 72.0074 19.0451ZM72.0074 21.8293C71.2525 21.8293 70.6941 22.0824 70.3324 22.5886C69.9706 23.0948 69.7897 23.9078 69.7897 25.0276C69.7897 26.1474 69.9706 26.9604 70.3324 27.4667C70.6941 27.9729 71.2525 28.226 72.0074 28.226C72.7624 28.226 73.3208 27.9729 73.6825 27.4667C74.0443 26.9604 74.2251 26.1474 74.2251 25.0276C74.2251 23.9078 74.0443 23.0948 73.6825 22.5886C73.3208 22.0824 72.7624 21.8293 72.0074 21.8293Z" fill="white"/>
<path d="M95.8963 19.0451C97.0917 19.0451 98.059 19.3979 98.7982 20.1035C99.5532 20.8092 99.9306 21.8139 99.9306 23.1178V30.7801H95.9199V24.0152C95.9199 22.696 95.3852 22.0364 94.3156 22.0364C93.6865 22.0364 93.1832 22.2588 92.8057 22.7036C92.4282 23.1485 92.2395 23.7928 92.2395 24.6365V30.7801H88.2288V24.0152C88.2288 22.696 87.694 22.0364 86.6245 22.0364C86.0268 22.0364 85.5314 22.2588 85.1381 22.7036C84.7449 23.1485 84.5483 23.8158 84.5483 24.7055V30.7801H80.5376V19.2752H84.1237L84.2416 21.4841C84.6191 20.6864 85.146 20.0805 85.8223 19.6664C86.4986 19.2522 87.2929 19.0451 88.2052 19.0451C89.1017 19.0451 89.8724 19.2445 90.5172 19.6433C91.1778 20.0422 91.6497 20.6174 91.9328 21.3691C92.3103 20.6174 92.845 20.0422 93.5371 19.6433C94.2449 19.2445 95.0313 19.0451 95.8963 19.0451Z" fill="white"/>
<path d="M110.321 19.0451C111.862 19.0451 113.058 19.5666 113.907 20.6098C114.756 21.6529 115.181 23.1101 115.181 24.9816C115.181 26.8837 114.748 28.364 113.883 29.4225C113.018 30.4809 111.831 31.0102 110.321 31.0102C109.487 31.0102 108.764 30.8184 108.15 30.4349C107.553 30.0514 107.089 29.5222 106.758 28.8472V35.6121H102.748V19.2752H106.263L106.381 21.7142C106.711 20.9012 107.215 20.2569 107.891 19.7814C108.583 19.2905 109.393 19.0451 110.321 19.0451ZM108.929 28.1339C109.637 28.1339 110.179 27.8808 110.557 27.3746C110.95 26.8684 111.147 26.0861 111.147 25.0276C111.147 23.9692 110.95 23.1868 110.557 22.6806C110.179 22.1744 109.637 21.9213 108.929 21.9213C108.253 21.9213 107.718 22.1744 107.325 22.6806C106.947 23.1868 106.758 23.9308 106.758 24.9126V25.1427C106.758 26.0937 106.947 26.8301 107.325 27.3516C107.702 27.8732 108.237 28.1339 108.929 28.1339Z" fill="white"/>
<path d="M128.842 28.5481C129.141 28.5481 129.385 28.5174 129.574 28.4561L129.267 30.642C128.811 30.8874 128.276 31.0102 127.663 31.0102C125.964 31.0102 124.949 30.4196 124.619 29.2384C123.911 30.4196 122.512 31.0102 120.42 31.0102C119.24 31.0102 118.336 30.7647 117.706 30.2738C117.077 29.783 116.763 29.0697 116.763 28.1339C116.763 27.1522 117.117 26.3622 117.824 25.7639C118.548 25.1503 119.728 24.6825 121.363 24.3603L124.029 23.8541V23.4399C124.029 22.9184 123.88 22.5042 123.581 22.1974C123.282 21.8906 122.873 21.7372 122.354 21.7372C121.757 21.7372 121.269 21.8753 120.891 22.1514C120.514 22.4275 120.27 22.88 120.16 23.509L116.904 22.5886C117.109 21.4688 117.675 20.6021 118.603 19.9885C119.531 19.3596 120.781 19.0451 122.354 19.0451C124.194 19.0451 125.594 19.4132 126.554 20.1496C127.513 20.8859 127.993 21.9903 127.993 23.463V27.6507C127.993 28.249 128.276 28.5481 128.842 28.5481ZM121.882 28.4791C122.433 28.4791 122.928 28.3334 123.369 28.0419C123.809 27.7351 124.029 27.3363 124.029 26.8454V25.856L122.118 26.2932C121.615 26.4159 121.253 26.5693 121.033 26.7534C120.829 26.9221 120.726 27.1675 120.726 27.4897C120.726 27.8118 120.829 28.0572 121.033 28.226C121.238 28.3947 121.521 28.4791 121.882 28.4791Z" fill="white"/>
<path d="M138.894 19.0451C140.136 19.0451 141.127 19.3979 141.867 20.1035C142.606 20.8092 142.975 21.8139 142.975 23.1178V30.7801H138.965V24.1993C138.965 23.4169 138.815 22.8647 138.516 22.5426C138.233 22.2051 137.824 22.0364 137.29 22.0364C136.66 22.0364 136.149 22.2588 135.756 22.7036C135.363 23.1332 135.166 23.8004 135.166 24.7055V30.7801H131.156V19.2752H134.742L134.86 21.4841C135.237 20.6711 135.772 20.0652 136.464 19.6664C137.156 19.2522 137.966 19.0451 138.894 19.0451Z" fill="white"/>
<path d="M152.947 30.7801C152.507 32.0072 152.027 32.9813 151.508 33.7023C150.989 34.4233 150.375 34.9372 149.668 35.244C148.96 35.5661 148.103 35.7272 147.096 35.7272C145.759 35.7272 144.69 35.4434 143.887 34.8758L144.737 32.2527C144.988 32.4828 145.264 32.6362 145.562 32.7129C145.877 32.8049 146.278 32.8509 146.766 32.8509C147.253 32.8509 147.639 32.7666 147.922 32.5978C148.205 32.4444 148.433 32.1606 148.606 31.7465L148.889 31.0332L147.521 27.9038L144.005 19.2752H148.417L150.234 25.833L150.8 28.272L151.437 25.7409L153.254 19.2752H157.264L152.947 30.7801Z" fill="white"/>
<path d="M170.861 27.7198V30.7801H158.994V15.5936H163.052V27.7198H170.861Z" fill="white"/>
<path d="M179.663 15.3635C181.236 15.3635 182.588 15.678 183.721 16.3069C184.869 16.9205 185.75 17.8179 186.363 18.9991C186.977 20.1649 187.283 21.5608 187.283 23.1868C187.283 24.8129 186.977 26.2165 186.363 27.3976C185.75 28.5635 184.869 29.4608 183.721 30.0898C182.588 30.7034 181.236 31.0102 179.663 31.0102C178.09 31.0102 176.729 30.7034 175.581 30.0898C174.433 29.4608 173.552 28.5635 172.939 27.3976C172.326 26.2165 172.019 24.8129 172.019 23.1868C172.019 21.5608 172.326 20.1649 172.939 18.9991C173.552 17.8179 174.433 16.9205 175.581 16.3069C176.729 15.678 178.09 15.3635 179.663 15.3635ZM179.663 18.4698C178.53 18.4698 177.665 18.8687 177.068 19.6664C176.47 20.464 176.171 21.6375 176.171 23.1868C176.171 24.7362 176.47 25.9097 177.068 26.7073C177.665 27.505 178.53 27.9038 179.663 27.9038C180.795 27.9038 181.652 27.505 182.234 26.7073C182.832 25.9097 183.131 24.7362 183.131 23.1868C183.131 21.6375 182.832 20.464 182.234 19.6664C181.652 18.8687 180.795 18.4698 179.663 18.4698Z" fill="white"/>
<path d="M204.041 22.5656V30.7801H201.21L201.092 28.9853C200.196 30.3352 198.709 31.0102 196.633 31.0102C195.217 31.0102 193.959 30.711 192.858 30.1128C191.773 29.4992 190.924 28.6095 190.31 27.4436C189.697 26.2625 189.39 24.8512 189.39 23.2099C189.39 21.5838 189.705 20.1879 190.334 19.0221C190.963 17.8409 191.859 16.9359 193.023 16.3069C194.187 15.678 195.564 15.3635 197.152 15.3635C198.929 15.3635 200.361 15.6703 201.446 16.2839C202.531 16.8975 203.388 17.8869 204.018 19.2522L200.266 20.7018C200.078 19.9501 199.724 19.3902 199.205 19.0221C198.686 18.6539 198.041 18.4698 197.27 18.4698C196.075 18.4698 195.155 18.8687 194.51 19.6664C193.881 20.464 193.566 21.6375 193.566 23.1868C193.566 26.3775 194.84 27.9729 197.388 27.9729C198.347 27.9729 199.118 27.7581 199.7 27.3286C200.298 26.8991 200.597 26.2778 200.597 25.4648V25.2347H196.727V22.5656H204.041Z" fill="white"/>
<path d="M214.107 15.3635C215.68 15.3635 217.032 15.678 218.165 16.3069C219.313 16.9205 220.194 17.8179 220.807 18.9991C221.421 20.1649 221.727 21.5608 221.727 23.1868C221.727 24.8129 221.421 26.2165 220.807 27.3976C220.194 28.5635 219.313 29.4608 218.165 30.0898C217.032 30.7034 215.68 31.0102 214.107 31.0102C212.534 31.0102 211.174 30.7034 210.025 30.0898C208.877 29.4608 207.997 28.5635 207.383 27.3976C206.77 26.2165 206.463 24.8129 206.463 23.1868C206.463 21.5608 206.77 20.1649 207.383 18.9991C207.997 17.8179 208.877 16.9205 210.025 16.3069C211.174 15.678 212.534 15.3635 214.107 15.3635ZM214.107 18.4698C212.975 18.4698 212.109 18.8687 211.512 19.6664C210.914 20.464 210.615 21.6375 210.615 23.1868C210.615 24.7362 210.914 25.9097 211.512 26.7073C212.109 27.505 212.975 27.9038 214.107 27.9038C215.239 27.9038 216.097 27.505 216.679 26.7073C217.276 25.9097 217.575 24.7362 217.575 23.1868C217.575 21.6375 217.276 20.464 216.679 19.6664C216.097 18.8687 215.239 18.4698 214.107 18.4698Z" fill="white"/>
<path fill-rule="evenodd" clip-rule="evenodd" d="M11.1374 11.06C11.1374 5.00188 6.27314 0.0908203 0.272705 0.0908203V36.6179C0.272705 39.4698 1.79094 42.1061 4.25769 43.5374L14.9069 49.7165C17.4028 51.1648 20.4853 51.1566 22.9736 49.6951L33.4456 43.5442C35.8916 42.1075 37.3939 39.4829 37.3939 36.6461V26.2476C37.3939 23.3592 35.8369 20.695 33.3202 19.2774L23.3156 13.6419C20.6436 12.1368 17.3464 12.2916 14.8272 14.0405L13.8536 14.7164V25.6855L18.9465 22.9432V22.9081L26.5292 27.4082V35.2835L18.9465 39.727L11.1374 35.5374V11.06Z" fill="white"/>
<path fill-rule="evenodd" clip-rule="evenodd" d="M3.45459 0.0908203C9.45502 0.0908203 14.3193 5.00188 14.3193 11.06V15.8875L17.918 13.8633L18.0829 13.7582C20.5732 12.1716 23.735 12.0858 26.3077 13.535L36.5021 19.2774C39.0187 20.695 40.5758 23.3592 40.5758 26.2476V36.6461C40.5758 39.4829 39.0735 42.1075 36.6275 43.5442L26.1555 49.6951C23.6672 51.1566 20.5847 51.1648 18.0888 49.7165L7.43957 43.5374C4.97283 42.1061 3.45459 39.4698 3.45459 36.6179V0.0908203ZM16.0577 26.1434L14.3193 27.0916V35.5374L22.1284 39.727L29.7111 35.2835V27.4082L22.1284 22.9081V22.9432L16.0577 26.1434Z" fill="#869DAE" fill-opacity="0.3"/>
</svg>
