<svg width="256" height="187" viewBox="0 0 256 187" fill="none" xmlns="http://www.w3.org/2000/svg">
<g clip-path="url(#clip0)">
<path d="M71.0764 127.004C110.331 146.614 152.385 142.029 165.007 116.763C177.629 91.4969 156.039 55.1176 116.785 35.5074C77.5305 15.8972 35.4763 20.4821 22.8543 45.7481C10.2322 71.0141 31.822 107.393 71.0764 127.004Z" fill="#F9F9F0"/>
<path d="M191.5 76L255.153 186.25H127.847L191.5 76Z" fill="#E7FBFD"/>
<path d="M52.0769 98.9233C47.6161 98.9233 44 102.539 44 107C44 111.461 47.6161 115.077 52.0769 115.077C56.5377 115.077 60.1538 111.461 60.1538 107C60.1538 102.539 56.5377 98.9233 52.0769 98.9233ZM52.0769 109.693C50.5901 109.693 49.3846 108.487 49.3846 107C49.3846 105.513 50.5901 104.308 52.0769 104.308C53.5638 104.308 54.7692 105.513 54.7692 107C54.7692 108.487 53.5638 109.693 52.0769 109.693Z" fill="#3082B9"/>
<path d="M220.683 114.231H165.82C166.468 112.967 166.836 111.538 166.836 110.024V82.0912C166.836 79.9366 166.094 77.9529 164.854 76.378C164.816 76.3267 164.776 76.2754 164.734 76.2255C163.036 74.1576 160.461 72.8364 157.582 72.8364H106.764C103.889 72.8364 101.317 74.1537 99.6181 76.2176C99.5682 76.2754 99.5209 76.3346 99.4762 76.3964C98.2457 77.9686 97.5095 79.9445 97.5095 82.0912V110.024C97.5095 111.538 97.8776 112.967 98.5257 114.231H94.1441C81.5253 114.231 71.2595 124.496 71.2595 137.115C71.2595 149.734 81.5253 160 94.1441 160H104.24C105.635 160 106.764 158.869 106.764 157.476C106.764 156.082 105.635 154.952 104.24 154.952H94.1441C84.3083 154.952 76.3076 146.95 76.3076 137.115C76.3076 127.281 84.3083 119.279 94.1441 119.279H220.683C230.518 119.279 238.519 127.281 238.519 137.115C238.519 146.95 230.518 154.952 220.683 154.952H116.019C114.624 154.952 113.495 156.082 113.495 157.476C113.495 158.869 114.624 160 116.019 160H220.683C233.301 160 243.567 149.734 243.567 137.115C243.567 124.496 233.301 114.231 220.683 114.231ZM157.582 77.8845C158.252 77.8845 158.883 78.0462 159.446 78.3262L155.135 84.6652C153.722 86.741 151.381 87.9807 148.872 87.9807H115.471C112.963 87.9807 110.623 86.7423 109.211 84.6692L104.895 78.3275C105.459 78.0475 106.093 77.8845 106.764 77.8845H157.582ZM106.764 114.231C104.444 114.231 102.558 112.344 102.558 110.024V83.8646L105.038 87.51C107.391 90.9661 111.291 93.0287 115.471 93.0287H148.872C153.052 93.0287 156.953 90.9648 159.309 87.5048L161.788 83.8594V110.024C161.788 112.344 159.902 114.231 157.582 114.231H106.764Z" fill="#3082B9"/>
<path d="M220.347 149.896C220.459 149.899 220.57 149.904 220.683 149.904C227.734 149.904 233.471 144.167 233.471 137.116C233.471 130.064 227.734 124.327 220.683 124.327C220.645 124.327 220.608 124.33 220.571 124.33C220.551 124.33 220.533 124.327 220.514 124.327H95.6586C95.4969 124.327 95.3391 124.344 95.1853 124.373C94.8409 124.346 94.4952 124.327 94.1442 124.327C87.0926 124.327 81.3557 130.064 81.3557 137.116C81.3557 144.054 86.9099 149.715 93.805 149.895C93.8615 149.899 93.9181 149.904 93.9759 149.904H220.178C220.234 149.904 220.291 149.899 220.347 149.896ZM208.145 134.592H106.682C106.294 132.66 105.468 130.887 104.315 129.375H210.512C209.359 130.887 208.533 132.66 208.145 134.592ZM106.682 139.64H208.145C208.533 141.571 209.359 143.344 210.512 144.856H104.315C105.468 143.344 106.294 141.571 106.682 139.64ZM228.423 137.116C228.423 141.384 224.951 144.856 220.683 144.856C216.414 144.856 212.942 141.384 212.942 137.116C212.942 132.847 216.414 129.375 220.683 129.375C224.951 129.375 228.423 132.847 228.423 137.116ZM86.4038 137.116C86.4038 132.847 89.8757 129.375 94.1442 129.375C98.4127 129.375 101.885 132.847 101.885 137.116C101.885 141.384 98.4127 144.856 94.1442 144.856C89.8757 144.856 86.4038 141.384 86.4038 137.116Z" fill="#3082B9"/>
<path d="M109.962 109.183H116.019C117.414 109.183 118.543 108.052 118.543 106.659C118.543 105.265 117.414 104.135 116.019 104.135H109.962C108.567 104.135 107.438 105.265 107.438 106.659C107.438 108.052 108.567 109.183 109.962 109.183Z" fill="#3082B9"/>
<path d="M89.2645 35.1442H169.529C170.924 35.1442 172.053 34.0137 172.053 32.6202C172.053 31.2267 170.924 30.0962 169.529 30.0962H89.2645C87.8723 30.0962 86.7405 28.9643 86.7405 27.5721C86.7405 26.18 87.8723 25.0481 89.2645 25.0481H225.563C226.955 25.0481 228.087 26.18 228.087 27.5721C228.087 28.9643 226.955 30.0962 225.563 30.0962H181.308C179.913 30.0962 178.784 31.2267 178.784 32.6202C178.784 34.0137 179.913 35.1442 181.308 35.1442H195.106V35.9856C195.106 37.9562 196.47 39.6113 198.303 40.0648V52.6442H195.274C192.027 52.6442 189.385 55.2866 189.385 58.5337V62.7404H182.822C177.719 62.7404 173.567 66.8919 173.567 71.9952V91.1779C173.567 95.3531 176.964 98.75 181.139 98.75C185.315 98.75 188.712 95.3531 188.712 91.1779V77.8846H212.942V91.1779C212.942 95.3531 216.339 98.75 220.514 98.75C224.69 98.75 228.087 95.3531 228.087 91.1779V71.9952C228.087 66.8919 223.935 62.7404 218.832 62.7404H212.269V58.5337C212.269 55.2866 209.627 52.6442 206.38 52.6442H203.351V40.0648C205.184 39.6113 206.548 37.9562 206.548 35.9856V35.1442H225.563C229.738 35.1442 233.135 31.7473 233.135 27.5721C233.135 23.3969 229.738 20 225.563 20H89.2645C85.0893 20 81.6924 23.3969 81.6924 27.5721C81.6924 31.7473 85.0893 35.1442 89.2645 35.1442ZM223.039 71.9952V91.1779C223.039 92.5701 221.907 93.7019 220.514 93.7019C219.122 93.7019 217.99 92.5701 217.99 91.1779V76.0337C217.99 74.2708 216.556 72.8365 214.793 72.8365H186.861C185.098 72.8365 183.664 74.2708 183.664 76.0337V91.1779C183.664 92.5701 182.532 93.7019 181.139 93.7019C179.747 93.7019 178.615 92.5701 178.615 91.1779V71.9952C178.615 69.6749 180.502 67.7885 182.822 67.7885H218.832C221.152 67.7885 223.039 69.6749 223.039 71.9952ZM207.221 58.5337V62.7404H194.433V58.5337C194.433 58.0696 194.81 57.6923 195.274 57.6923H206.38C206.844 57.6923 207.221 58.0696 207.221 58.5337Z" fill="#3082B9"/>
<path d="M148.102 109.183H154.16C155.555 109.183 156.684 108.052 156.684 106.659C156.684 105.265 155.555 104.135 154.16 104.135H148.102C146.709 104.135 145.578 105.265 145.578 106.659C145.578 108.052 146.709 109.183 148.102 109.183Z" fill="#3082B9"/>
<path d="M217.317 137.115C217.317 138.972 218.827 140.481 220.683 140.481C222.539 140.481 224.048 138.972 224.048 137.115C224.048 135.259 222.539 133.75 220.683 133.75C218.827 133.75 217.317 135.259 217.317 137.115Z" fill="#3082B9"/>
<path d="M97.5096 137.115C97.5096 135.259 96.0004 133.75 94.1442 133.75C92.288 133.75 90.7788 135.259 90.7788 137.115C90.7788 138.972 92.288 140.481 94.1442 140.481C96.0004 140.481 97.5096 138.972 97.5096 137.115Z" fill="#3082B9"/>
</g>
<defs>
<clipPath id="clip0">
<rect width="256" height="187" fill="white"/>
</clipPath>
</defs>
</svg>
