<svg width="256" height="187" viewBox="0 0 256 187" fill="none" xmlns="http://www.w3.org/2000/svg">
<g clip-path="url(#clip0)">
<path d="M71.0764 127.004C110.331 146.614 152.385 142.029 165.007 116.763C177.629 91.4969 156.039 55.1176 116.785 35.5074C77.5305 15.8972 35.4763 20.4821 22.8543 45.7481C10.2322 71.0141 31.822 107.393 71.0764 127.004Z" fill="#F9F9F0"/>
<path d="M191.5 76L255.153 186.25H127.847L191.5 76Z" fill="#E7FBFD"/>
<path d="M218.873 97.4484C217.786 89.9201 211.872 84.006 204.344 82.9194V78.4638C204.344 66.1705 194.999 56.1614 183.512 56.1614C172.356 56.1614 163.016 65.8666 162.68 77.7972H162.822L162.68 77.8217V126.12C162.68 141.56 151.137 154.098 136.947 154.098C122.756 154.098 111.213 141.543 111.213 126.12V121.936C114.767 121.936 118.565 119.361 118.565 112.133V105.969C134.295 101.947 145.524 88.4411 145.524 73.1284V68.0184H140.623L140.52 36.1211C140.484 30.2167 136.247 25.1754 130.437 24.1243C129.184 20.2848 125.055 18.1882 121.215 19.4417C117.376 20.695 115.279 24.8237 116.533 28.6635C117.786 32.5031 121.915 34.5997 125.755 33.3461C127.811 32.6749 129.464 31.1281 130.271 29.1215C133.41 30.0149 135.585 32.8713 135.611 36.1358L135.721 68.0184H130.82V73.1994C130.624 81.7243 124.909 89.1325 116.713 91.485C112.327 92.8764 107.619 92.8764 103.233 91.485C95.0465 89.1245 89.3441 81.7176 89.1557 73.1994V68.0184H81.8033V36.1578C81.8174 32.8452 84.0451 29.9508 87.2441 29.0897C88.7357 32.8869 93.0231 34.7557 96.8203 33.264C100.618 31.7724 102.486 27.4847 100.995 23.6878C99.503 19.8909 95.2153 18.0218 91.4184 19.5134C89.361 20.3219 87.7734 22.009 87.0921 24.1121C81.2184 25.1157 76.9179 30.199 76.9016 36.1578V68.0184H72V73.1161C72 88.446 83.237 101.957 98.959 105.969V112.133C98.959 119.361 102.758 121.936 106.311 121.936V126.12C106.311 144.256 120.053 159 136.947 159C153.84 159 167.582 144.239 167.582 126.12V77.9393C167.827 68.6385 174.978 61.0704 183.512 61.0704C192.296 61.0704 199.442 68.8737 199.442 78.4711V82.9194C190.065 84.2728 183.56 92.9723 184.913 102.35C186.267 111.728 194.966 118.233 204.344 116.879C213.722 115.526 220.226 106.826 218.873 97.4484ZM123.467 28.8054C122.114 28.8054 121.016 27.708 121.016 26.3546C121.016 25.0011 122.114 23.9038 123.467 23.9038C124.821 23.9038 125.918 25.0011 125.918 26.3546C125.918 27.708 124.821 28.8054 123.467 28.8054ZM94.0573 23.9038C95.4108 23.9038 96.5081 25.0011 96.5081 26.3546C96.5081 27.708 95.4108 28.8054 94.0573 28.8054C92.7039 28.8054 91.6065 27.708 91.6065 26.3546C91.6065 25.0011 92.7039 23.9038 94.0573 23.9038ZM76.9016 73.1161V72.92H84.2541V73.1994C84.4379 83.8516 91.5247 93.1478 101.748 96.1464C107.105 97.8427 112.855 97.8427 118.213 96.1464C128.441 93.1518 135.534 83.8553 135.721 73.1994V72.92H140.623V73.1161C140.623 86.75 130.114 98.7467 115.624 101.648C112.222 102.33 108.737 102.501 105.285 102.156C104.148 102.046 103.018 101.875 101.9 101.644C87.4107 98.7467 76.9016 86.75 76.9016 73.1161ZM106.311 117.035C104.106 117.035 103.861 113.604 103.861 112.133V106.932C104.057 106.957 104.258 106.967 104.456 106.986C104.701 107.013 104.946 107.033 105.191 107.055C106.351 107.158 107.52 107.227 108.698 107.229H108.821C109.997 107.229 111.164 107.158 112.316 107.055C112.561 107.033 112.821 107.013 113.073 106.986C113.267 106.964 113.468 106.957 113.661 106.932V112.133C113.661 113.604 113.416 117.035 111.211 117.035H106.311ZM201.893 112.133C195.126 112.133 189.639 106.647 189.639 99.879C189.639 93.1114 195.126 87.6249 201.893 87.6249C208.661 87.6249 214.147 93.1114 214.147 99.879C214.139 106.644 208.657 112.125 201.893 112.133Z" fill="#3082B9"/>
</g>
<defs>
<clipPath id="clip0">
<rect width="256" height="187" fill="white"/>
</clipPath>
</defs>
</svg>
