<svg width="51" height="51" viewBox="0 0 51 51" fill="none" xmlns="http://www.w3.org/2000/svg">
<path d="M30.1033 14.8208L36.3528 14.8949L36.2788 21.1444L30.0292 21.0704L30.1033 14.8208Z" fill="#70D9FF"/>
<path d="M29.925 29.8586L36.1746 29.9327L36.1005 36.1823L29.851 36.1082L29.925 29.8586Z" fill="#70D9FF"/>
<path d="M15.0652 14.6426L21.3147 14.7166L21.2407 20.9662L14.9911 20.8921L15.0652 14.6426Z" fill="#70D9FF"/>
<path d="M14.887 29.6804L21.1365 29.7545L21.0625 36.004L14.8129 35.93L14.887 29.6804Z" fill="#70D9FF"/>
<path d="M43.4688 7.94539C38.8031 3.16799 32.5564 0.493291 25.8791 0.414158C19.2018 0.335026 12.8934 2.86093 8.11583 7.52642C3.33843 12.1921 0.663731 18.4389 0.584599 25.1162C0.505467 31.7934 3.03137 38.1018 7.69686 42.8794C12.3626 47.6568 18.6093 50.3315 25.2866 50.4107C31.9639 50.4898 38.2723 47.9639 43.0499 43.2984C47.8273 38.6327 50.502 32.3859 50.5811 25.7087C50.6602 19.0314 48.1343 12.723 43.4688 7.94539ZM26.8867 39.003L27.0302 26.8945L39.1388 27.038L38.9953 39.1465L26.8867 39.003ZM39.1735 24.1085L27.0649 23.965L27.2084 11.8565L39.317 12L39.1735 24.1085ZM12.0269 23.7868L12.1704 11.6783L24.279 11.8218L24.1355 23.9303L12.0269 23.7868ZM24.1008 26.8598L23.9573 38.9683L11.8487 38.8248L11.9922 26.7163L24.1008 26.8598Z" fill="#70D9FF"/>
</svg>
