<svg width="103" height="86" viewBox="0 0 103 86" fill="none" xmlns="http://www.w3.org/2000/svg">
<path d="M39.3252 40.3257H29.0818C30.6226 28.9187 36.9299 28.3456 39.8324 28.0816C42.7322 27.8176 44.9519 25.3868 44.9519 22.4752V5.62901C44.9519 4.08147 44.3146 2.60149 43.1898 1.53808C42.0651 0.474676 40.5507 -0.0764483 39.0066 0.00855661C21.2118 1.00948 0 9.9941 0 47.1137V76.4094C0 81.2997 3.97834 85.2781 8.86866 85.2781H39.3258C44.2161 85.2781 48.1944 81.2992 48.1939 76.4089V49.1943C48.1939 44.304 44.2155 40.3257 39.3252 40.3257ZM36.9355 74.0186H11.2589V47.1137C11.2589 21.2125 22.7774 13.9786 33.6929 11.9368V17.8557C26.1545 20.1502 17.4784 26.927 17.4784 45.9551C17.4784 49.0643 19.9987 51.5846 23.1078 51.5846H36.9355V74.0186Z" fill="#6DADCE"/>
<path d="M94.1313 40.3257H83.8874C85.4282 28.9187 91.7354 28.3456 94.638 28.0816C97.5377 27.8176 99.7574 25.3868 99.7574 22.4752V5.62901C99.7574 4.08147 99.1201 2.60149 97.9954 1.53808C96.8706 0.474676 95.3552 -0.0764483 93.8121 0.00855661C76.0174 1.00948 54.8055 9.9941 54.8055 47.1137V76.4094C54.8055 81.2997 58.7839 85.2781 63.6742 85.2781H94.1313C99.0216 85.2781 103.001 81.2992 103 76.4083V49.1943C103 44.304 99.0216 40.3257 94.1313 40.3257ZM91.741 74.0191H66.0645V47.1137C66.0645 21.2125 77.5829 13.9786 88.4985 11.9368V17.8557C80.96 20.1502 72.2839 26.927 72.2839 45.9551C72.2839 49.0643 74.8042 51.5846 77.9134 51.5846H91.741V74.0191Z" fill="#6DADCE"/>
</svg>
