<svg width="256" height="187" viewBox="0 0 256 187" fill="none" xmlns="http://www.w3.org/2000/svg">
<g clip-path="url(#clip0)">
<path d="M71.0764 127.004C110.331 146.614 152.385 142.029 165.007 116.763C177.629 91.4969 156.039 55.1176 116.785 35.5074C77.5305 15.8972 35.4763 20.4821 22.8543 45.7481C10.2322 71.0141 31.822 107.393 71.0764 127.004Z" fill="#F9F9F0"/>
<path d="M191.5 76L255.153 186.25H127.847L191.5 76Z" fill="#E7FBFD"/>
<path d="M133.763 50.231C128.453 50.231 124.148 54.4852 124.148 59.733C124.148 64.9808 128.453 69.235 133.763 69.235C139.074 69.235 143.379 64.9808 143.379 59.733C143.379 54.4852 139.074 50.231 133.763 50.231ZM133.763 64.484C131.108 64.484 128.956 62.357 128.956 59.733C128.969 57.1185 131.118 55.0057 133.763 55.0057V54.982C136.419 54.982 138.571 57.109 138.571 59.733C138.571 62.357 136.419 64.484 133.763 64.484Z" fill="#3082B9"/>
<path d="M161.264 50.231C155.953 50.231 151.648 54.4852 151.648 59.733C151.648 64.9808 155.953 69.235 161.264 69.235C166.574 69.235 170.879 64.9808 170.879 59.733C170.879 54.4852 166.574 50.231 161.264 50.231ZM161.264 64.484C158.609 64.484 156.456 62.357 156.456 59.733C156.469 57.1185 158.618 55.0057 161.264 55.0057V54.982C163.919 54.982 166.072 57.109 166.072 59.733C166.072 62.357 163.919 64.484 161.264 64.484Z" fill="#3082B9"/>
<path d="M190.577 61.1671C189.54 55.5274 184.945 51.1891 179.197 50.4212C177.611 44.6249 173.043 39.6839 163.86 39.6839H149.918V34.4578C154.135 33.1459 156.477 28.704 155.149 24.537C153.822 20.3698 149.327 18.0552 145.11 19.3673C140.893 20.6792 138.551 25.1211 139.879 29.2881C140.664 31.7521 142.617 33.6822 145.11 34.4578V39.5651H131.192C124.701 39.5651 117.874 42.5107 115.807 50.3024C108.481 51.2963 103.357 57.9709 104.363 65.2105C105.151 70.8871 109.547 75.4169 115.254 76.433L115.23 76.5518C115.951 86.9803 123.788 90.8049 131.168 90.8049H163.86C174.846 90.8049 179.245 83.6784 179.798 76.5518C187.073 75.2447 191.9 68.3569 190.577 61.1671ZM115.158 71.8008C110.617 70.5038 108 65.8151 109.312 61.3284C110.128 58.5392 112.335 56.3585 115.158 55.5523V71.8008ZM144.317 27.0462C144.317 25.3014 145.748 23.8867 147.514 23.8867C149.279 23.8867 150.711 25.3014 150.711 27.0462C150.711 28.791 149.279 30.2056 147.514 30.2056C145.748 30.2056 144.317 28.791 144.317 27.0462ZM175.062 74.8414C175.062 78.9748 173.596 85.9113 163.86 85.9113H131.191C127.009 85.9113 119.989 84.4623 119.989 74.8414L119.965 55.5523C119.965 45.9077 126.985 44.4824 131.167 44.4824H163.86C173.62 44.4824 175.062 51.4189 175.062 55.5523V74.8414ZM179.774 71.6345V55.386C183.438 56.4312 185.965 59.7412 185.976 63.5103C185.965 67.2793 183.438 70.5893 179.774 71.6345Z" fill="#3082B9"/>
<path d="M161.264 75.6968H133.763C132.436 75.6968 131.36 76.7604 131.36 78.0723C131.36 79.3842 132.436 80.4478 133.763 80.4478H161.264C162.591 80.4478 163.668 79.3842 163.668 78.0723C163.668 76.7604 162.591 75.6968 161.264 75.6968Z" fill="#3082B9"/>
<path d="M201 95.2472C200.954 90.1571 196.741 86.0674 191.59 86.1128C187.28 86.1508 183.558 89.1021 182.586 93.2518L176.168 94.4871H118.859L112.441 93.2518C111.341 88.2787 106.37 85.1281 101.338 86.2149C96.3054 87.3017 93.1172 92.214 94.217 97.1871C94.9646 100.567 97.5647 103.249 100.951 104.132V121.877C96.8841 122.949 94.0478 126.579 94.0274 130.738V134.942C94.0274 136.254 95.1037 137.318 96.4313 137.318C97.7588 137.318 98.8352 136.254 98.8352 134.942V130.714C98.8352 128.248 100.859 126.248 103.354 126.248C105.85 126.248 107.874 128.248 107.874 130.714V134.942C107.874 136.254 108.95 137.318 110.278 137.318C111.605 137.318 112.682 136.254 112.682 134.942V130.714C112.661 126.555 109.825 122.925 105.758 121.853V104.108C108.812 103.295 111.239 101.004 112.201 98.0269L116.215 98.8108V128.125C116.22 132.422 117.137 136.671 118.908 140.596V140.81C126.005 156.357 144.512 163.274 160.244 156.261C167.187 153.165 172.747 147.671 175.879 140.81L176 140.549C177.789 136.643 178.731 132.411 178.764 128.125V98.8108L182.779 98.0269C183.74 101.004 186.167 103.295 189.221 104.108V121.853C185.155 122.925 182.318 126.555 182.298 130.714V134.942C182.298 136.254 183.374 137.318 184.702 137.318C186.029 137.318 187.106 136.254 187.106 134.942V130.714C187.108 128.248 189.133 126.25 191.629 126.252C194.122 126.254 196.142 128.251 196.144 130.714V134.942C196.144 136.254 197.221 137.318 198.548 137.318C199.876 137.318 200.952 136.254 200.952 134.942V130.714C200.931 126.555 198.095 122.925 194.029 121.853V104.108C198.114 103.054 200.974 99.4195 201 95.2472ZM103.354 99.7132C100.859 99.7132 98.8352 97.7136 98.8352 95.2472C98.8352 92.7809 100.859 90.7813 103.354 90.7813C105.85 90.7813 107.874 92.7809 107.874 95.2472C107.874 97.7136 105.85 99.7132 103.354 99.7132ZM147.514 154.279C138.457 154.278 130.031 149.698 125.182 142.14H169.846C164.997 149.698 156.57 154.278 147.514 154.279ZM173.956 128.148C173.945 131.316 173.35 134.455 172.202 137.413H122.778C121.629 134.455 121.035 131.316 121.023 128.148V99.2381H173.956V128.148ZM191.698 99.7126C191.689 99.7126 191.681 99.7129 191.673 99.7129L191.625 99.6416C189.129 99.6416 187.106 97.642 187.106 95.1757C187.106 92.7093 189.129 90.7097 191.625 90.7097C194.121 90.7097 196.144 92.7093 196.144 95.1757C196.184 97.642 194.193 99.6731 191.698 99.7126Z" fill="#3082B9"/>
<path d="M156.018 116.003C155.578 115.611 155.006 115.393 154.413 115.391H147.201L156.048 106.412C156.898 105.404 156.761 103.907 155.742 103.066C154.83 102.314 153.5 102.333 152.61 103.11L139.797 116.128C138.868 117.065 138.883 118.569 139.831 119.487C140.284 119.926 140.894 120.17 141.528 120.166H148.932L139.821 130.191C138.934 131.162 139.009 132.66 139.99 133.54C140.973 134.417 142.488 134.343 143.379 133.374L156.192 119.358C157.081 118.385 157.003 116.882 156.018 116.003Z" fill="#3082B9"/>
</g>
<defs>
<clipPath id="clip0">
<rect width="256" height="187" fill="white"/>
</clipPath>
</defs>
</svg>
